<?xml version="1.0" encoding="utf-8"?>
<!-- Generator: Adobe Illustrator 18.1.1, SVG Export Plug-In . SVG Version: 6.00 Build 0)  -->
<!DOCTYPE svg PUBLIC "-//W3C//DTD SVG 1.1//EN" "http://www.w3.org/Graphics/SVG/1.1/DTD/svg11.dtd">
<svg version="1.1" id="Layer_1" xmlns="http://www.w3.org/2000/svg" xmlns:xlink="http://www.w3.org/1999/xlink" x="0px" y="0px"
	 viewBox="0 0 851 315" enable-background="new 0 0 851 315" xml:space="preserve">
<g>
	<path d="M0,314.9V188.5h15.2v94.8h45.6v31.6H0z M15.2,188.5V0h15.2v189.6H15.2V188.5z"/>
	<path d="M75.9,251.7v-63.2h15.2v63.2H75.9z M91.1,188.5V0h15.2v189.6H91.1V188.5z M91.1,314.9v-63.2h15.2v31.6h30.4v31.6
		C136.7,314.9,91.1,314.9,91.1,314.9z M136.7,283.3v-94.8h15.2v94.8H136.7z M151.9,188.5V0h15.2v189.6h-15.2V188.5z"/>
	<path d="M182.3,314.9V188.5h15.2v126.4C197.5,314.9,182.3,314.9,182.3,314.9z M197.5,188.5V0h15.2v31.6h15.2V158h-15.2v31.6h-15.2
		V188.5z M243,314.9v-63.2h-15.2v-94.8H243v31.6h15.2v126.4H243z M258.2,188.5V0h15.2v189.6h-15.2V188.5z"/>
	<path d="M288.6,314.9v-63.2h15.2v63.2H288.6z M349.4,314.9v-63.2h-45.6v-94.8H319v63.2h30.4v-158h15.2v252.8H349.4z M319,156.9
		V62.1h15.2v94.8H319z M334.2,62.1V0h15.2v63.2h-15.2V62.1z"/>
	<path d="M379.7,314.9V188.5h15.2v126.4C394.9,314.9,379.7,314.9,379.7,314.9z M425.3,251.7v-63.2h-30.4V0h60.8v31.6h-45.6V158h30.4
		v94.8h-15.2V251.7z M440.5,156.9v-31.6h15.2v31.6H440.5z M440.5,314.9v-63.2h15.2v63.2H440.5z M455.7,125.3V30.5h15.2v94.8H455.7z"
		/>
	<path d="M516.5,314.9V62.1h15.2v221.2H562V156.9h30.4v31.6h-15.2v126.4H516.5z M531.6,62.1V30.5h15.2v31.6H531.6z M546.8,31.6V0
		h30.4v31.6H546.8z M577.2,62.1V30.5h15.2v31.6H577.2z"/>
	<path d="M607.6,314.9v-63.2h15.2v63.2H607.6z M668.4,314.9v-63.2h-45.6v-94.8H638v63.2h30.4v-158h15.2v252.8H668.4z M638,156.9
		V62.1h15.2v94.8H638z M653.2,62.1V0h15.2v63.2h-15.2V62.1z"/>
	<path d="M698.7,314.9V188.5h15.2v94.8h45.6v31.6H698.7z M713.9,188.5V0h15.2v189.6h-15.2V188.5z"/>
	<path d="M774.7,314.9v-63.2h15.2v63.2H774.7z M835.4,314.9v-63.2h-45.6v-94.8H805v63.2h30.4v-158h15.2v252.8H835.4z M805.1,156.9
		V62.1h15.2v94.8H805.1z M820.3,62.1V0h15.2v63.2h-15.2V62.1z"/>
</g>
</svg>
