<?xml version="1.0" encoding="utf-8"?>
<!-- Generator: Adobe Illustrator 18.1.1, SVG Export Plug-In . SVG Version: 6.00 Build 0)  -->
<!DOCTYPE svg PUBLIC "-//W3C//DTD SVG 1.1//EN" "http://www.w3.org/Graphics/SVG/1.1/DTD/svg11.dtd">
<svg version="1.1" id="Layer_1" xmlns="http://www.w3.org/2000/svg" xmlns:xlink="http://www.w3.org/1999/xlink" x="0px" y="0px"
	 viewBox="0 0 851 315" enable-background="new 0 0 851 315" xml:space="preserve">
<g>
	<path d="M0,144.6V95.9h24.1v48.6H0z M24.1,266.4V144.6h24.1V266H24.1V266.4z M48.6,314.6v-48.3h24.1V315H48.6V314.6z M73.2,266.4
		V144.6h24.1V266H73.2V266.4z M97.3,144.6V95.9h24.1v48.6H97.3z"/>
	<path d="M145.9,314.6V95.9h97.3v24.1h-72.8v73.2h73.2v24.1h-73.2v73.2h73.2v24.1H145.9z"/>
	<path d="M267.7,169.1v-49h24.1v48.6h-24.1V169.1z M267.7,290.5v-48.6h24.1v48.6H267.7z M291.8,120.1V95.9H365v24.1H291.8z
		 M291.8,193.2v-24.1H316v24.1H291.8z M291.8,314.6v-24.1H365v24.1H291.8z M316,217.3v-24.1h48.6v24.1H316z M365,144.6v-24.5h24.1
		v24.1H365V144.6z M365,290.5v-73.2h24.1v73.2H365z"/>
	<path d="M462.3,314.6V120.1h-48.6V95.9H535v24.1h-48.6v194.6H462.3z"/>
	<path d="M559.6,314.6V95.9h24.1v218.7H559.6z"/>
	<path d="M607.8,290.5V144.6h24.1v145.9H607.8z M632.3,144.6v-24.5h24.1v24.1h-24.1V144.6z M632.3,314.6v-24.1h73.2v-48.6H681v-24.1
		h48.6V315h-97.3V314.6z M656.8,120.1V95.9h48.6v24.1H656.8z M705.1,169.1v-49h24.1v48.6h-24.1V169.1z"/>
	<path d="M754.1,314.6V95.9h97.3v24.1h-73.2v73.2h73.2v24.1h-73.2v73.2h73.2v24.1H754.1z"/>
</g>
<g>
	<path d="M0,95.9V84.7h15.2v8.4h45.6v2.8H0z M15.2,84.7V68h15.2v16.8H15.2z"/>
	<path d="M75.9,90.3v-5.6h15.2v5.6H75.9z M91.1,84.7V68h15.2v16.8H91.1z M91.1,95.9v-5.6h15.2v2.8h30.4v2.8H91.1z M136.7,93.1v-8.4
		h15.2v8.4H136.7z M151.9,84.7V68h15.2v16.8H151.9z"/>
	<path d="M182.3,95.9V84.7h15.2v11.2H182.3z M197.5,84.7V68h15.2v2.8h15.2v11.2h-15.2v2.8H197.5z M243,95.9v-5.6h-15.2v-8.4H243v2.8
		h15.2v11.2H243z M258.2,84.7V68h15.2v16.8H258.2z"/>
	<path d="M288.6,95.9v-5.6h15.2v5.6H288.6z M349.4,95.9v-5.6h-45.6v-8.4H319v5.6h30.4v-14h15.2v22.4H349.4z M319,81.9v-8.4h15.2v8.4
		H319z M334.2,73.5V68h15.2v5.6H334.2z"/>
	<path d="M379.7,95.9V84.7h15.2v11.2H379.7z M425.3,90.3v-5.6h-30.4V68h60.8v2.8h-45.6v11.2h30.4v8.4H425.3z M440.5,81.9v-2.8h15.2
		v2.8H440.5z M440.5,95.9v-5.6h15.2v5.6H440.5z M455.7,79.1v-8.4h15.2v8.4H455.7z"/>
	<path d="M516.5,95.9V73.5h15.2v19.6H562V81.9h30.4v2.8h-15.2v11.2H516.5z M531.6,73.5v-2.8h15.2v2.8H531.6z M546.8,70.8V68h30.4
		v2.8H546.8z M577.2,73.5v-2.8h15.2v2.8H577.2z"/>
	<path d="M607.6,95.9v-5.6h15.2v5.6H607.6z M668.4,95.9v-5.6h-45.6v-8.4H638v5.6h30.4v-14h15.2v22.4H668.4z M638,81.9v-8.4h15.2v8.4
		H638z M653.2,73.5V68h15.2v5.6H653.2z"/>
	<path d="M698.7,95.9V84.7h15.2v8.4h45.6v2.8H698.7z M713.9,84.7V68h15.2v16.8H713.9z"/>
	<path d="M774.7,95.9v-5.6h15.2v5.6H774.7z M835.4,95.9v-5.6h-45.6v-8.4h15.2v5.6h30.4v-14h15.2v22.4H835.4z M805.1,81.9v-8.4h15.2
		v8.4H805.1z M820.3,73.5V68h15.2v5.6H820.3z"/>
</g>
</svg>
