<?xml version="1.0" encoding="utf-8"?>
<!-- Generator: Adobe Illustrator 18.1.1, SVG Export Plug-In . SVG Version: 6.00 Build 0)  -->
<!DOCTYPE svg PUBLIC "-//W3C//DTD SVG 1.1//EN" "http://www.w3.org/Graphics/SVG/1.1/DTD/svg11.dtd">
<svg version="1.1" id="Layer_1" xmlns="http://www.w3.org/2000/svg" xmlns:xlink="http://www.w3.org/1999/xlink" x="0px" y="0px"
	 viewBox="0 0 193.4 62.5" enable-background="new 0 0 193.4 62.5" xml:space="preserve">
<g>
	<path d="M0,62.5V50h6.2v12.5H0z M25,62.5V50H6.2V31.2h6.2v12.5H25V12.5h6.2v50H25z M12.5,31.2V12.5h6.2v18.8H12.5z M18.7,12.5V0H25
		v12.5H18.7z"/>
	<path d="M37.5,62.5v-25h6.2v18.8h18.8v6.2H37.5z M62.5,56.2v-25H50v6.3h-6.2V0H75v25h-6.2V6.2H50V25h18.8v31.3H62.5z"/>
	<path d="M81.2,62.5v-50h6.2v43.8H100v6.2H81.2z M87.5,12.5V0h18.8v12.5H100V6.2h-6.2v6.2H87.5z M100,56.2V37.5h6.2v18.8H100z
		 M106.2,37.5v-25h6.2v25H106.2z"/>
	<path d="M118.7,50V37.5h6.2V50H118.7z M125,37.5V0h6.2v37.5H125z M125,62.5V50h6.2v6.2h12.5v6.2H125z M143.7,56.2V37.5h6.2v18.8
		H143.7z M150,37.5V0h6.2v37.5H150z"/>
	<path d="M175,37.5V6.2h-12.5V0h31.2v6.2h-12.5v31.2H175z M168.7,62.5v-25h6.2v25H168.7z"/>
</g>
</svg>
