<?xml version="1.0" encoding="utf-8"?>
<!-- Generator: Adobe Illustrator 18.1.1, SVG Export Plug-In . SVG Version: 6.00 Build 0)  -->
<!DOCTYPE svg PUBLIC "-//W3C//DTD SVG 1.1//EN" "http://www.w3.org/Graphics/SVG/1.1/DTD/svg11.dtd">
<svg version="1.1" id="Layer_1" xmlns="http://www.w3.org/2000/svg" xmlns:xlink="http://www.w3.org/1999/xlink" x="0px" y="0px"
	 viewBox="0 1235.4 851 315" enable-background="new 0 1235.4 851 315" xml:space="preserve">
<text transform="matrix(0.6238 0 0 1 -703.4668 -13.5474)" font-family="'Arial-Lawl-Subhead'" font-size="146.55">An exhibition of stimulation and saturation.</text>
<text transform="matrix(0.1871 0 0 1 -416.9669 361.9265)" font-family="'Arial-Lawl-Subhead'" font-size="282.23">The information high you crave.</text>
<g>
	<path d="M0,419.8v-20.7h13.5v13.8H9V406H4.5v13.8H0z M0,447.4v-13.8h4.5v6.9H9v-13.8H4.5v-6.9h9v27.6H0z"/>
	<path d="M23.9,447.4v-27.6h-4.5v-6.9h4.5v-13.8h4.5v13.8h4.5v6.9h-4.5v20.7h4.5v6.9H23.9z"/>
	<path d="M38.9,440.5v-27.6h4.5v27.6H38.9z M43.4,447.4v-6.9h9v-27.6h4.5v34.5H43.4z"/>
	<path d="M62.8,440.5v-20.7h4.5v20.7H62.8z M67.3,447.4v-6.9h9v-20.7h-9v-6.9h9v-13.8h4.5v48.4H67.3z"/>
	<path d="M86.8,440.5v-20.7h4.5v6.9h4.5v-6.9h4.5v13.8h-9v6.9H86.8z M91.3,419.8v-6.9h4.5v6.9H91.3z M91.3,447.4v-6.9h4.5v6.9H91.3z
		"/>
	<path d="M106.2,447.4v-34.5h18v34.5h-4.5v-27.6h-9v27.6H106.2z"/>
	<path d="M134.6,447.4v-27.6h-4.5v-6.9h4.5v-13.8h4.5v13.8h4.5v6.9h-4.5v20.7h4.5v6.9H134.6z"/>
	<path d="M160.4,440.5v-20.7h4.5v20.7H160.4z M164.9,447.4v-6.9h9v-20.7h-9v-6.9h9v-13.8h4.5v48.4H164.9z"/>
	<path d="M184.3,440.5v-20.7h4.5v6.9h4.5v-6.9h4.5v13.8h-9v6.9H184.3z M188.8,419.8v-6.9h4.5v6.9H188.8z M188.8,447.4v-6.9h4.5v6.9
		H188.8z"/>
	<path d="M208.3,447.4v-13.8h-4.5v-20.7h4.5v13.8h4.5v20.7H208.3z"/>
	<path d="M218.7,406v-6.9h4.5v6.9H218.7z M218.7,447.4v-34.5h4.5v34.5H218.7z"/>
	<path d="M229.1,461.2v-13.8h4.5v6.9h9v-6.9h-9v-6.9h9v-20.7h-9v-6.9h13.5v48.4H229.1z M229.1,440.5v-20.7h4.5v20.7H229.1z"/>
	<path d="M253.1,447.4v-34.5h18v34.5h-4.5v-27.6h-9v27.6H253.1z"/>
	<path d="M277,440.5v-20.7h4.5v6.9h4.5v-6.9h4.5v13.8h-9v6.9H277z M281.5,419.8v-6.9h4.5v6.9H281.5z M281.5,447.4v-6.9h4.5v6.9
		H281.5z"/>
	<path d="M296.5,447.4v-34.5H310v6.9h-9v27.6H296.5z"/>
	<path d="M320.4,447.4v-13.8h-4.5v-20.7h4.5v13.8h4.5v20.7H320.4z"/>
	<path d="M330.8,461.2v-20.7h4.5v20.7H330.8z"/>
	<path d="M352.1,447.4v-34.5h22.5v34.5h-4.5v-27.6h-4.5v27.6h-4.5v-27.6h-4.5v27.6H352.1z"/>
	<path d="M380.5,440.5v-20.7h4.5v20.7H380.5z M385,419.8v-6.9h9v6.9H385z M385,447.4v-6.9h9v6.9H385z M394,440.5v-20.7h4.5v20.7H394
		z"/>
	<path d="M404.4,440.5v-20.7h4.5v20.7H404.4z M408.9,447.4v-6.9h9v-20.7h-9v-6.9h9v-13.8h4.5v48.4H408.9z"/>
	<path d="M428.4,440.5v-20.7h4.5v6.9h4.5v-6.9h4.5v13.8h-9v6.9H428.4z M432.9,419.8v-6.9h4.5v6.9H432.9z M432.9,447.4v-6.9h4.5v6.9
		H432.9z"/>
	<path d="M447.8,447.4v-48.4h4.5v48.4H447.8z"/>
	<path d="M462.8,447.4v-13.8h-4.5v-20.7h4.5v13.8h4.5v20.7H462.8z"/>
	<path d="M473.2,461.2v-20.7h4.5v20.7H473.2z"/>
	<path d="M494.4,440.5v-20.7h4.5v20.7H494.4z M498.9,447.4v-6.9h9v-20.7h-9v-6.9h9v-13.8h4.5v48.4H498.9z"/>
	<path d="M518.4,447.4v-13.8h4.5v6.9h4.5v-6.9h-4.5v-6.9h4.5v-6.9h-9v-6.9h13.5v34.5H518.4z"/>
	<path d="M537.8,447.4v-34.5h18v34.5h-4.5v-27.6h-9v27.6H537.8z"/>
	<path d="M561.8,440.5v-20.7h4.5v20.7H561.8z M570.8,426.7v-6.9h-4.5v-6.9h9v13.8H570.8z M566.3,447.4v-6.9h4.5v-6.9h4.5v13.8H566.3
		z"/>
	<path d="M581.2,440.5v-20.7h4.5v6.9h4.5v-6.9h4.5v13.8h-9v6.9H581.2z M585.7,419.8v-6.9h4.5v6.9H585.7z M585.7,447.4v-6.9h4.5v6.9
		H585.7z"/>
	<path d="M600.6,447.4v-34.5h13.5v6.9h-9v27.6H600.6z"/>
	<path d="M624.6,447.4v-13.8h-4.5v-20.7h4.5v13.8h4.5v20.7H624.6z"/>
	<path d="M635,461.2v-20.7h4.5v20.7H635z"/>
	<path d="M656.2,447.4v-13.8h4.5v6.9h4.5v-6.9h-4.5v-6.9h4.5v-6.9h-9v-6.9h13.5v34.5H656.2z"/>
	<path d="M675.7,447.4v-34.5h18v34.5h-4.5v-27.6h-9v27.6H675.7z"/>
	<path d="M699.6,440.5v-20.7h4.5v20.7H699.6z M704.1,447.4v-6.9h9v-20.7h-9v-6.9h9v-13.8h4.5v48.4H704.1z"/>
	<path d="M734.4,447.4v-13.8h4.5v6.9h4.5v-6.9h-4.5v-6.9h4.5v-6.9h-9v-6.9h13.5v34.5H734.4z"/>
	<path d="M753.8,447.4v-34.5h13.5v6.9h-9v27.6H753.8z"/>
	<path d="M777.7,447.4v-27.6h-4.5v-6.9h4.5v-13.8h4.5v13.8h4.5v6.9h-4.5v20.7h4.5v6.9H777.7z"/>
	<path d="M792.7,406v-6.9h4.5v6.9H792.7z M792.7,447.4v-34.5h4.5v34.5H792.7z"/>
	<path d="M807.6,447.4v-13.8h-4.5v-20.7h4.5v13.8h4.5v20.7H807.6z"/>
	<path d="M822.6,447.4v-27.6h-4.5v-6.9h4.5v-13.8h4.5v13.8h4.5v6.9h-4.5v20.7h4.5v6.9H822.6z"/>
	<path d="M842,447.4v-13.8h-4.5v-20.7h4.5v13.8h4.5v20.7H842z"/>
	<path d="M0,510.4V462h4.5v13.8h9v6.9h-9v20.7h9v6.9H0z M13.5,503.4v-20.7H18v20.7H13.5z"/>
	<path d="M23.9,510.4v-34.5h13.5v6.9h-9v27.6H23.9z"/>
	<path d="M43.4,468.9V462h4.5v6.9H43.4z M43.4,510.4v-34.5h4.5v34.5H43.4z"/>
	<path d="M53.8,510.4v-34.5h18v34.5h-4.5v-27.6h-9v27.6H53.8z"/>
	<path d="M77.8,524.2v-13.8h4.5v6.9h9v-6.9h-9v-6.9h9v-20.7h-9v-6.9h13.5v48.4H77.8z M77.8,503.4v-20.7h4.5v20.7H77.8z"/>
	<path d="M123.7,510.4v-27.6h-4.5v-6.9h4.5V462h4.5v13.8h4.5v6.9h-4.5v20.7h4.5v6.9H123.7z"/>
	<path d="M138.6,510.4V462h4.5v13.8h13.5v34.5h-4.5v-27.6h-9v27.6H138.6z"/>
	<path d="M162.5,503.4v-20.7h4.5v6.9h4.5v-6.9h4.5v13.8h-9v6.9H162.5z M167,482.7v-6.9h4.5v6.9H167z M167,510.4v-6.9h4.5v6.9H167z"
		/>
	<path d="M182,468.9V462h4.5v6.9H182z M182,510.4v-34.5h4.5v34.5H182z"/>
	<path d="M192.4,510.4v-34.5h13.5v6.9h-9v27.6H192.4z"/>
	<path d="M233.8,510.4v-13.8h-4.5v-20.7h4.5v13.8h4.5v20.7H233.8z"/>
	<path d="M244.2,510.4V462h4.5v27.6h4.5v-13.8h4.5v34.5h-4.5v-13.8h-4.5v13.8H244.2z"/>
	<path d="M263.7,468.9V462h4.5v6.9H263.7z M263.7,510.4v-34.5h4.5v34.5H263.7z"/>
	<path d="M274.1,510.4V462h4.5v48.4H274.1z"/>
	<path d="M284.6,510.4V462h4.5v48.4H284.6z"/>
	<path d="M299.5,510.4v-13.8H295v-20.7h4.5v13.8h4.5v20.7H299.5z"/>
	<path d="M331.9,510.4v-27.6h-4.5v-6.9h4.5V462h4.5v13.8h4.5v6.9h-4.5v20.7h4.5v6.9H331.9z"/>
	<path d="M346.8,503.4v-20.7h4.5v20.7H346.8z M351.3,482.7v-6.9h9v6.9H351.3z M351.3,510.4v-6.9h9v6.9H351.3z M360.3,503.4v-20.7
		h4.5v20.7H360.3z"/>
	<path d="M370.8,524.2v-13.8h4.5v6.9h9v-6.9h-9v-6.9h9v-20.7h-9v-6.9h13.5v48.4H370.8z M370.8,503.4v-20.7h4.5v20.7H370.8z"/>
	<path d="M394.7,503.4v-20.7h4.5v6.9h4.5v-6.9h4.5v13.8h-9v6.9H394.7z M399.2,482.7v-6.9h4.5v6.9H399.2z M399.2,510.4v-6.9h4.5v6.9
		H399.2z"/>
	<path d="M418.7,510.4v-27.6h-4.5v-6.9h4.5V462h4.5v13.8h4.5v6.9h-4.5v20.7h4.5v6.9H418.7z"/>
	<path d="M433.6,510.4V462h4.5v13.8h13.5v34.5h-4.5v-27.6h-9v27.6H433.6z"/>
	<path d="M457.5,503.4v-20.7h4.5v6.9h4.5v-6.9h4.5v13.8h-9v6.9H457.5z M462,482.7v-6.9h4.5v6.9H462z M462,510.4v-6.9h4.5v6.9H462z"
		/>
	<path d="M477,510.4v-34.5h13.5v6.9h-9v27.6H477z"/>
	<path d="M518.4,510.4v-27.6h-4.5v-6.9h4.5V462h4.5v13.8h4.5v6.9h-4.5v20.7h4.5v6.9H518.4z"/>
	<path d="M533.3,503.4v-20.7h4.5v20.7H533.3z M537.8,482.7v-6.9h9v6.9H537.8z M537.8,510.4v-6.9h9v6.9H537.8z M546.8,503.4v-20.7
		h4.5v20.7H546.8z"/>
	<path d="M574.7,524.2v-48.4h13.5v6.9h-9v20.7h9v6.9h-9v13.8H574.7z M588.2,503.4v-20.7h4.5v20.7H588.2z"/>
	<path d="M598.6,510.4v-34.5h13.5v6.9h-9v27.6H598.6z"/>
	<path d="M618.1,503.4v-20.7h4.5v20.7H618.1z M622.6,482.7v-6.9h9v6.9H622.6z M622.6,510.4v-6.9h9v6.9H622.6z M631.6,503.4v-20.7
		h4.5v20.7H631.6z"/>
	<path d="M642,503.4v-20.7h4.5v20.7H642z M646.5,510.4v-6.9h9v-20.7h-9v-6.9h9V462h4.5v48.4H646.5z"/>
	<path d="M666,503.4v-27.6h4.5v27.6H666z M670.5,510.4v-6.9h9v-27.6h4.5v34.5H670.5z"/>
	<path d="M689.9,503.4v-20.7h4.5v20.7H689.9z M698.9,489.6v-6.9h-4.5v-6.9h9v13.8H698.9z M694.4,510.4v-6.9h4.5v-6.9h4.5v13.8H694.4
		z"/>
	<path d="M709.3,503.4v-20.7h4.5v6.9h4.5v-6.9h4.5v13.8h-9v6.9H709.3z M713.8,482.7v-6.9h4.5v6.9H713.8z M713.8,510.4v-6.9h4.5v6.9
		H713.8z"/>
	<path d="M746.2,510.4V462h4.5v41.5h9v6.9H746.2z"/>
	<path d="M765.7,503.4v-27.6h4.5v27.6H765.7z M770.2,510.4v-6.9h9v-27.6h4.5v34.5H770.2z"/>
	<path d="M789.6,510.4v-34.5h18v34.5h-4.5v-27.6h-9v27.6H789.6z"/>
	<path d="M813.6,510.4v-13.8h4.5v6.9h4.5v-6.9h-4.5v-6.9h4.5v-6.9h-9v-6.9h13.5v34.5H813.6z"/>
	<path d="M833,510.4v-34.5h13.5v6.9h-9v27.6H833z"/>
	<path d="M4.5,573.3v-6.9H0v-34.5h4.5v-6.9H18v6.9H9v6.9H4.5v20.7H9v6.9h9v6.9H4.5z M18,566.4v-13.8h-4.5v-6.9h9v20.7H18z M18,538.8
		v-6.9h4.5v6.9H18z"/>
	<path d="M28.4,573.3v-13.8h4.5v6.9h4.5v-6.9h-4.5v-6.9h4.5v-6.9h-9v-6.9h13.5v34.5H28.4z"/>
	<path d="M47.9,573.3v-48.4h4.5v48.4H47.9z"/>
	<path d="M58.3,573.3v-13.8h4.5v6.9h4.5v-6.9h-4.5v-6.9h4.5v-6.9h-9v-6.9h13.5v34.5H58.3z"/>
	<path d="M77.8,587.1v-20.7h4.5v20.7H77.8z"/>
	<path d="M113.4,573.3v-6.9h-4.5v-34.5h4.5v-6.9h18v6.9h-13.5v6.9h-4.5v20.7h4.5v6.9h13.5v6.9H113.4z M131.4,538.8v-6.9h4.5v6.9
		H131.4z M131.4,566.4v-6.9h4.5v6.9H131.4z"/>
	<path d="M141.8,573.3v-13.8h4.5v6.9h4.5v-6.9h-4.5v-6.9h4.5v-6.9h-9v-6.9h13.5v34.5H141.8z"/>
	<path d="M161.2,573.3v-34.5h13.5v6.9h-9v27.6H161.2z"/>
	<path d="M180.7,573.3v-34.5h18v34.5h-4.5v-27.6h-9v27.6H180.7z"/>
	<path d="M204.6,566.4v-20.7h4.5v6.9h4.5v-6.9h4.5v13.8h-9v6.9H204.6z M209.1,545.7v-6.9h4.5v6.9H209.1z M209.1,573.3v-6.9h4.5v6.9
		H209.1z"/>
	<path d="M224.1,587.1v-13.8h4.5v6.9h9v-6.9h-9v-6.9h9v-20.7h-9v-6.9h13.5v48.4H224.1z M224.1,566.4v-20.7h4.5v20.7H224.1z"/>
	<path d="M248,531.8v-6.9h4.5v6.9H248z M248,573.3v-34.5h4.5v34.5H248z"/>
	<path d="M258.4,566.4v-20.7h4.5v6.9h4.5v-6.9h4.5v13.8h-9v6.9H258.4z M262.9,545.7v-6.9h4.5v6.9H262.9z M262.9,573.3v-6.9h4.5v6.9
		H262.9z"/>
	<path d="M298.5,573.3v-48.4h9v34.5H303v13.8H298.5z M307.5,573.3v-13.8h4.5v13.8H307.5z M316.5,573.3v-13.8H312v-34.5h9v48.4H316.5
		z"/>
	<path d="M327,566.4v-20.7h4.5v6.9h4.5v-6.9h4.5v13.8h-9v6.9H327z M331.5,545.7v-6.9h4.5v6.9H331.5z M331.5,573.3v-6.9h4.5v6.9
		H331.5z"/>
	<path d="M346.4,573.3v-48.4h4.5v48.4H346.4z"/>
	<path d="M356.9,573.3v-48.4h4.5v48.4H356.9z"/>
	<path d="M367.3,566.4v-20.7h4.5v20.7H367.3z M371.8,545.7v-6.9h9v6.9H371.8z M371.8,573.3v-6.9h9v6.9H371.8z M380.8,566.4v-20.7
		h4.5v20.7H380.8z"/>
	<path d="M391.2,573.3v-34.5h18v34.5h-4.5v-27.6h-9v27.6H391.2z"/>
	<path d="M415.2,545.7v-20.7h4.5v20.7H415.2z"/>
	<path d="M430.1,573.3v-13.8h-4.5v-20.7h4.5v13.8h4.5v20.7H430.1z"/>
	<path d="M461.2,573.3v-48.4h4.5v48.4H461.2z"/>
	<path d="M471.6,573.3v-13.8h4.5v6.9h4.5v-6.9h-4.5v-6.9h4.5v-6.9h-9v-6.9h13.5v34.5H471.6z"/>
	<path d="M491.1,573.3v-34.5h13.5v6.9h-9v27.6H491.1z"/>
	<path d="M510.5,587.1v-13.8h4.5v6.9h9v-6.9h-9v-6.9h9v-20.7h-9v-6.9h13.5v48.4H510.5z M510.5,566.4v-20.7h4.5v20.7H510.5z"/>
	<path d="M534.5,566.4v-20.7h4.5v6.9h4.5v-6.9h4.5v13.8h-9v6.9H534.5z M539,545.7v-6.9h4.5v6.9H539z M539,573.3v-6.9h4.5v6.9H539z"
		/>
	<path d="M558.4,573.3v-13.8h-4.5v-20.7h4.5v13.8h4.5v20.7H558.4z"/>
	<path d="M573.3,573.3v-27.6h-4.5v-6.9h4.5v-13.8h4.5v13.8h4.5v6.9h-4.5v20.7h4.5v6.9H573.3z"/>
	<path d="M608.9,573.3v-13.8h4.5v6.9h4.5v-6.9h-4.5v-6.9h4.5v-6.9h-9v-6.9h13.5v34.5H608.9z"/>
	<path d="M628.4,573.3v-34.5h18v34.5h-4.5v-27.6h-9v27.6H628.4z"/>
	<path d="M652.3,573.3v-34.5h18v34.5h-4.5v-27.6h-9v27.6H652.3z"/>
	<path d="M676.3,566.4v-27.6h4.5v27.6H676.3z M680.8,573.3v-6.9h9v-27.6h4.5v34.5H680.8z"/>
	<path d="M700.2,573.3v-13.8h4.5v6.9h4.5v-6.9h-4.5v-6.9h4.5v-6.9h-9v-6.9h13.5v34.5H700.2z"/>
	<path d="M719.6,573.3v-48.4h4.5v48.4H719.6z"/>
	<path d="M755.2,573.3v-13.8h-4.5v-20.7h4.5v13.8h4.5v20.7H755.2z"/>
	<path d="M765.7,573.3v-48.4h4.5v13.8h13.5v34.5h-4.5v-27.6h-9v27.6H765.7z"/>
	<path d="M789.6,566.4v-20.7h4.5v20.7H789.6z M794.1,545.7v-6.9h9v6.9H794.1z M794.1,573.3v-6.9h9v6.9H794.1z M803.1,566.4v-20.7
		h4.5v20.7H803.1z"/>
	<path d="M818.1,573.3v-13.8h-4.5v-20.7h4.5v13.8h4.5v-13.8h4.5v20.7h-4.5v13.8H818.1z M827.1,573.3v-13.8h4.5v13.8H827.1z
		 M831.6,559.5v-20.7h4.5v20.7H831.6z"/>
	<path d="M842,573.3v-6.9h4.5v6.9H842z"/>
	<path d="M0,636.2v-48.4h4.5v41.5h9v6.9H0z"/>
	<path d="M19.4,629.3v-27.6h4.5v27.6H19.4z M23.9,636.2v-6.9h9v-27.6h4.5v34.5H23.9z"/>
	<path d="M43.4,636.2v-34.5h18v34.5h-4.5v-27.6h-9v27.6H43.4z"/>
	<path d="M67.3,636.2v-13.8h4.5v6.9h4.5v-6.9h-4.5v-6.9h4.5v-6.9h-9v-6.9h13.5v34.5H67.3z"/>
	<path d="M86.8,636.2v-34.5h13.5v6.9h-9v27.6H86.8z"/>
	<path d="M134.6,636.2v-6.9h-4.5v-34.5h4.5v-6.9h13.5v6.9h-9v6.9h-4.5v20.7h4.5v6.9h9v6.9H134.6z M148.1,629.3v-13.8h-4.5v-6.9h9
		v20.7H148.1z M148.1,601.7v-6.9h4.5v6.9H148.1z"/>
	<path d="M158.6,636.2v-13.8h4.5v6.9h4.5v-6.9h-4.5v-6.9h4.5v-6.9h-9v-6.9h13.5v34.5H158.6z"/>
	<path d="M178,636.2v-48.4h4.5v48.4H178z"/>
	<path d="M188.5,636.2v-13.8h4.5v6.9h4.5v-6.9H193v-6.9h4.5v-6.9h-9v-6.9H202v34.5H188.5z"/>
	<path d="M231.8,636.2v-48.4h4.5v13.8h9v6.9h-9v20.7h9v6.9H231.8z M245.3,629.3v-20.7h4.5v20.7H245.3z"/>
	<path d="M255.8,636.2v-34.5h13.5v6.9h-9v27.6H255.8z"/>
	<path d="M275.2,594.8v-6.9h4.5v6.9H275.2z M275.2,636.2v-34.5h4.5v34.5H275.2z"/>
	<path d="M285.6,636.2v-34.5h18v34.5h-4.5v-27.6h-9v27.6H285.6z"/>
	<path d="M309.6,650.1v-13.8h4.5v6.9h9v-6.9h-9v-6.9h9v-20.7h-9v-6.9h13.5v48.4H309.6z M309.6,629.3v-20.7h4.5v20.7H309.6z"/>
	<path d="M338,636.2v-13.8h-4.5v-20.7h4.5v13.8h4.5v20.7H338z"/>
	<path d="M376.9,636.2v-27.6h-4.5v-6.9h4.5v-13.8h4.5v13.8h4.5v6.9h-4.5v20.7h4.5v6.9H376.9z"/>
	<path d="M391.8,629.3v-20.7h4.5v20.7H391.8z M396.3,608.6v-6.9h9v6.9H396.3z M396.3,636.2v-6.9h9v6.9H396.3z M405.3,629.3v-20.7
		h4.5v20.7H405.3z"/>
	<path d="M415.8,650.1v-13.8h4.5v6.9h9v-6.9h-9v-6.9h9v-20.7h-9v-6.9h13.5v48.4H415.8z M415.8,629.3v-20.7h4.5v20.7H415.8z"/>
	<path d="M439.7,629.3v-20.7h4.5v6.9h4.5v-6.9h4.5v13.8h-9v6.9H439.7z M444.2,608.6v-6.9h4.5v6.9H444.2z M444.2,636.2v-6.9h4.5v6.9
		H444.2z"/>
	<path d="M463.7,636.2v-27.6h-4.5v-6.9h4.5v-13.8h4.5v13.8h4.5v6.9h-4.5v20.7h4.5v6.9H463.7z"/>
	<path d="M478.6,636.2v-48.4h4.5v13.8h13.5v34.5h-4.5v-27.6h-9v27.6H478.6z"/>
	<path d="M502.5,629.3v-20.7h4.5v6.9h4.5v-6.9h4.5v13.8h-9v6.9H502.5z M507,608.6v-6.9h4.5v6.9H507z M507,636.2v-6.9h4.5v6.9H507z"
		/>
	<path d="M522,636.2v-34.5h13.5v6.9h-9v27.6H522z"/>
	<path d="M569.8,636.2v-27.6h-4.5v-6.9h4.5v-13.8h9v6.9h-4.5v6.9h4.5v6.9h-4.5v27.6H569.8z"/>
	<path d="M584.8,636.2v-13.8h4.5v6.9h4.5v-6.9h-4.5v-6.9h4.5v-6.9h-9v-6.9h13.5v34.5H584.8z"/>
	<path d="M608.7,636.2v-13.8h-4.5v-20.7h4.5v13.8h4.5v20.7H608.7z"/>
	<path d="M619.2,636.2v-48.4h4.5v13.8h13.5v34.5h-4.5v-27.6h-9v27.6H619.2z"/>
	<path d="M643.1,594.8v-6.9h4.5v6.9H643.1z M643.1,636.2v-34.5h4.5v34.5H643.1z"/>
	<path d="M653.5,629.3v-20.7h4.5v20.7H653.5z M658,608.6v-6.9h9v6.9H658z M658,636.2v-6.9h9v6.9H658z M667,629.3v-20.7h4.5v20.7H667
		z"/>
	<path d="M677.5,636.2v-34.5h18v34.5H691v-27.6h-9v27.6H677.5z"/>
	<path d="M725.4,629.3v-20.7h4.5v20.7H725.4z M729.9,636.2v-6.9h9v-20.7h-9v-6.9h9v-13.8h4.5v48.4H729.9z"/>
	<path d="M749.3,629.3v-20.7h4.5v6.9h4.5v-6.9h4.5v13.8h-9v6.9H749.3z M753.8,608.6v-6.9h4.5v6.9H753.8z M753.8,636.2v-6.9h4.5v6.9
		H753.8z"/>
	<path d="M773.2,636.2v-13.8h-4.5v-20.7h4.5v13.8h4.5v20.7H773.2z"/>
	<path d="M783.7,594.8v-6.9h4.5v6.9H783.7z M783.7,636.2v-34.5h4.5v34.5H783.7z"/>
	<path d="M794.1,650.1v-13.8h4.5v6.9h9v-6.9h-9v-6.9h9v-20.7h-9v-6.9h13.5v48.4H794.1z M794.1,629.3v-20.7h4.5v20.7H794.1z"/>
	<path d="M818.1,636.2v-34.5h18v34.5h-4.5v-27.6h-9v27.6H818.1z"/>
	<path d="M842,650.1v-20.7h4.5v20.7H842z"/>
	<path d="M0,692.3v-20.7h4.5v20.7H0z M4.5,699.2v-6.9h9v-20.7h-9v-6.9h9v-13.8H18v48.4H4.5z"/>
	<path d="M23.9,699.2v-13.8h4.5v6.9h4.5v-6.9h-4.5v-6.9h4.5v-6.9h-9v-6.9h13.5v34.5H23.9z"/>
	<path d="M43.4,699.2v-34.5h18v34.5h-4.5v-27.6h-9v27.6H43.4z"/>
	<path d="M67.3,692.3v-20.7h4.5v20.7H67.3z M76.3,678.5v-6.9h-4.5v-6.9h9v13.8H76.3z M71.8,699.2v-6.9h4.5v-6.9h4.5v13.8H71.8z"/>
	<path d="M86.8,692.3v-20.7h4.5v6.9h4.5v-6.9h4.5v13.8h-9v6.9H86.8z M91.3,671.5v-6.9h4.5v6.9H91.3z M91.3,699.2v-6.9h4.5v6.9H91.3z
		"/>
	<path d="M112.9,699.2v-13.8h4.5v6.9h4.5v-6.9h-4.5v-6.9h4.5v-6.9h-9v-6.9h13.5v34.5H112.9z"/>
	<path d="M132.4,699.2v-34.5h18v34.5h-4.5v-27.6h-9v27.6H132.4z"/>
	<path d="M156.3,692.3v-20.7h4.5v20.7H156.3z M160.8,699.2v-6.9h9v-20.7h-9v-6.9h9v-13.8h4.5v48.4H160.8z"/>
	<path d="M187,685.4v-20.7h4.5v20.7H187z M191.5,699.2v-13.8h4.5v13.8H191.5z M196,685.4v-20.7h4.5v20.7H196z"/>
	<path d="M206.4,657.7v-6.9h4.5v6.9H206.4z M206.4,699.2v-34.5h4.5v34.5H206.4z"/>
	<path d="M216.8,692.3v-20.7h4.5v20.7H216.8z M221.3,699.2v-6.9h9v-20.7h-9v-6.9h9v-13.8h4.5v48.4H221.3z"/>
	<path d="M240.8,692.3v-20.7h4.5v6.9h4.5v-6.9h4.5v13.8h-9v6.9H240.8z M245.3,671.5v-6.9h4.5v6.9H245.3z M245.3,699.2v-6.9h4.5v6.9
		H245.3z"/>
	<path d="M260.2,692.3v-20.7h4.5v20.7H260.2z M264.7,671.5v-6.9h9v6.9H264.7z M264.7,699.2v-6.9h9v6.9H264.7z M273.7,692.3v-20.7
		h4.5v20.7H273.7z"/>
	<path d="M290.9,699.2v-13.8h4.5v6.9h4.5v-6.9h-4.5v-6.9h4.5v-6.9h-9v-6.9h13.5v34.5H290.9z"/>
	<path d="M310.3,699.2v-34.5h13.5v6.9h-9v27.6H310.3z"/>
	<path d="M334.3,699.2v-27.6h-4.5v-6.9h4.5v-13.8h4.5v13.8h4.5v6.9h-4.5v20.7h4.5v6.9H334.3z"/>
	<path d="M355.9,657.7v-6.9h4.5v6.9H355.9z M355.9,699.2v-34.5h4.5v34.5H355.9z"/>
	<path d="M366.4,699.2v-34.5h18v34.5h-4.5v-27.6h-9v27.6H366.4z"/>
	<path d="M397,699.2v-13.8h4.5v6.9h4.5v-6.9h-4.5v-6.9h4.5v-6.9h-9v-6.9h13.5v34.5H397z"/>
	<path d="M423.2,692.3v-27.6h4.5v27.6H423.2z M427.7,699.2v-6.9h9v-27.6h4.5v34.5H427.7z"/>
	<path d="M447.1,699.2v-34.5h18v34.5h-4.5v-27.6h-9v27.6H447.1z"/>
	<path d="M471.1,657.7v-6.9h4.5v6.9H471.1z M471.1,699.2v-34.5h4.5v34.5H471.1z"/>
	<path d="M481.5,692.3v-20.7h4.5v20.7H481.5z M495,713v-13.8h-9v-6.9h9v-20.7h-9v-6.9h13.5V713H495z"/>
	<path d="M505.5,692.3v-27.6h4.5v27.6H505.5z M510,699.2v-6.9h9v-27.6h4.5v34.5H510z"/>
	<path d="M529.4,692.3v-20.7h4.5v6.9h4.5v-6.9h4.5v13.8h-9v6.9H529.4z M533.9,671.5v-6.9h4.5v6.9H533.9z M533.9,699.2v-6.9h4.5v6.9
		H533.9z"/>
	<path d="M555.6,692.3v-20.7h4.5v20.7H555.6z M560.1,671.5v-6.9h9v6.9H560.1z M560.1,699.2v-6.9h9v6.9H560.1z M569.1,692.3v-20.7
		h4.5v20.7H569.1z"/>
	<path d="M579.5,699.2v-34.5h18v34.5H593v-27.6h-9v27.6H579.5z"/>
	<path d="M603.4,692.3v-20.7h4.5v6.9h4.5v-6.9h4.5v13.8h-9v6.9H603.4z M607.9,671.5v-6.9h4.5v6.9H607.9z M607.9,699.2v-6.9h4.5v6.9
		H607.9z"/>
	<path d="M622.9,685.4v-6.9h13.5v6.9H622.9z"/>
	<path d="M642.3,699.2v-34.5h18v34.5h-4.5v-27.6h-9v27.6H642.3z"/>
	<path d="M666.3,657.7v-6.9h4.5v6.9H666.3z M666.3,699.2v-34.5h4.5v34.5H666.3z"/>
	<path d="M676.7,713v-13.8h4.5v6.9h9v-6.9h-9v-6.9h9v-20.7h-9v-6.9h13.5V713H676.7z M676.7,692.3v-20.7h4.5v20.7H676.7z"/>
	<path d="M700.6,699.2v-48.4h4.5v13.8h13.5v34.5h-4.5v-27.6h-9v27.6H700.6z"/>
	<path d="M729.1,699.2v-27.6h-4.5v-6.9h4.5v-13.8h4.5v13.8h4.5v6.9h-4.5v20.7h4.5v6.9H729.1z"/>
	<path d="M750.7,692.3v-20.7h4.5v6.9h4.5v-6.9h4.5v13.8h-9v6.9H750.7z M755.2,671.5v-6.9h4.5v6.9H755.2z M755.2,699.2v-6.9h4.5v6.9
		H755.2z"/>
	<path d="M770.2,685.4v-20.7h4.5v20.7H770.2z M774.7,699.2v-13.8h4.5v13.8H774.7z M779.2,685.4v-20.7h4.5v20.7H779.2z"/>
	<path d="M789.6,692.3v-20.7h4.5v6.9h4.5v-6.9h4.5v13.8h-9v6.9H789.6z M794.1,671.5v-6.9h4.5v6.9H794.1z M794.1,699.2v-6.9h4.5v6.9
		H794.1z"/>
	<path d="M809.1,699.2v-34.5h18v34.5h-4.5v-27.6h-9v27.6H809.1z"/>
	<path d="M837.5,699.2v-27.6H833v-6.9h4.5v-13.8h4.5v13.8h4.5v6.9H842v20.7h4.5v6.9H837.5z"/>
</g>
<rect x="924" y="443" fill="none" width="851" height="315"/>
<text transform="matrix(1 0 0 1 924 474.5518)"><tspan x="0" y="0" font-family="'ArialLol1'" font-size="72" letter-spacing="1">Student</tspan><tspan x="149.6" y="0" font-family="'ArialLol1'" font-size="72" letter-spacing="6"> </tspan><tspan x="160.4" y="0" font-family="'ArialLol1'" font-size="72" letter-spacing="1">designers,</tspan><tspan x="341.3" y="0" font-family="'ArialLol1'" font-size="72" letter-spacing="6"> </tspan><tspan x="352.1" y="0" font-family="'ArialLol1'" font-size="72" letter-spacing="1">models,</tspan><tspan x="483.6" y="0" font-family="'ArialLol1'" font-size="72" letter-spacing="6"> </tspan><tspan x="494.4" y="0" font-family="'ArialLol1'" font-size="72" letter-spacing="1">dancers,</tspan><tspan x="645.5" y="0" font-family="'ArialLol1'" font-size="72" letter-spacing="6"> </tspan><tspan x="656.2" y="0" font-family="'ArialLol1'" font-size="72" letter-spacing="1">and</tspan><tspan x="723.6" y="0" font-family="'ArialLol1'" font-size="72" letter-spacing="6"> </tspan><tspan x="734.4" y="0" font-family="'ArialLol1'" font-size="72" letter-spacing="1">artists </tspan><tspan x="0" y="41" font-family="'ArialLol1'" font-size="72" letter-spacing="1">bring</tspan><tspan x="101.7" y="41" font-family="'ArialLol1'" font-size="72" letter-spacing="12"> </tspan><tspan x="119.2" y="41" font-family="'ArialLol1'" font-size="72" letter-spacing="1">their</tspan><tspan x="211.9" y="41" font-family="'ArialLol1'" font-size="72" letter-spacing="12"> </tspan><tspan x="229.3" y="41" font-family="'ArialLol1'" font-size="72" letter-spacing="1">skills</tspan><tspan x="309.9" y="41" font-family="'ArialLol1'" font-size="72" letter-spacing="12"> </tspan><tspan x="327.4" y="41" font-family="'ArialLol1'" font-size="72" letter-spacing="1">together</tspan><tspan x="496.4" y="41" font-family="'ArialLol1'" font-size="72" letter-spacing="12"> </tspan><tspan x="513.9" y="41" font-family="'ArialLol1'" font-size="72" letter-spacing="1">to</tspan><tspan x="557.3" y="41" font-family="'ArialLol1'" font-size="72" letter-spacing="12"> </tspan><tspan x="574.7" y="41" font-family="'ArialLol1'" font-size="72" letter-spacing="1">produce</tspan><tspan x="728.8" y="41" font-family="'ArialLol1'" font-size="72" letter-spacing="12"> </tspan><tspan x="746.2" y="41" font-family="'ArialLol1'" font-size="72" letter-spacing="1">Lunar </tspan><tspan x="0" y="82" font-family="'ArialLol1'" font-size="72" letter-spacing="1">Gala,</tspan><tspan x="88.2" y="82" font-family="'ArialLol1'" font-size="72" letter-spacing="16"> </tspan><tspan x="108.9" y="82" font-family="'ArialLol1'" font-size="72" letter-spacing="1">Carnegie</tspan><tspan x="277.9" y="82" font-family="'ArialLol1'" font-size="72" letter-spacing="16"> </tspan><tspan x="298.5" y="82" font-family="'ArialLol1'" font-size="72" letter-spacing="1">Mellon’s</tspan><tspan x="440.6" y="82" font-family="'ArialLol1'" font-size="72" letter-spacing="16"> </tspan><tspan x="461.2" y="82" font-family="'ArialLol1'" font-size="72" letter-spacing="1">largest</tspan><tspan x="588.3" y="82" font-family="'ArialLol1'" font-size="72" letter-spacing="16"> </tspan><tspan x="608.9" y="82" font-family="'ArialLol1'" font-size="72" letter-spacing="1">annual</tspan><tspan x="730.1" y="82" font-family="'ArialLol1'" font-size="72" letter-spacing="16"> </tspan><tspan x="750.7" y="82" font-family="'ArialLol1'" font-size="72" letter-spacing="1">show. </tspan><tspan x="0" y="123" font-family="'ArialLol1'" font-size="72" letter-spacing="1">Lunar</tspan><tspan x="106.2" y="123" font-family="'ArialLol1'" font-size="72" letter-spacing="19"> </tspan><tspan x="130.1" y="123" font-family="'ArialLol1'" font-size="72" letter-spacing="1">Gala</tspan><tspan x="207.9" y="123" font-family="'ArialLol1'" font-size="72" letter-spacing="19"> </tspan><tspan x="231.8" y="123" font-family="'ArialLol1'" font-size="72" letter-spacing="1">brings</tspan><tspan x="348.5" y="123" font-family="'ArialLol1'" font-size="72" letter-spacing="19"> </tspan><tspan x="372.4" y="123" font-family="'ArialLol1'" font-size="72" letter-spacing="1">together</tspan><tspan x="541.4" y="123" font-family="'ArialLol1'" font-size="72" letter-spacing="19"> </tspan><tspan x="565.3" y="123" font-family="'ArialLol1'" font-size="72" letter-spacing="1">fashion</tspan><tspan x="701.4" y="123" font-family="'ArialLol1'" font-size="72" letter-spacing="19"> </tspan><tspan x="725.4" y="123" font-family="'ArialLol1'" font-size="72" letter-spacing="1">design, </tspan><tspan x="0" y="164" font-family="'ArialLol1'" font-size="72" letter-spacing="1">dance</tspan><tspan x="106.2" y="164" font-family="'ArialLol1'" font-size="72" letter-spacing="2"> </tspan><tspan x="112.9" y="164" font-family="'ArialLol1'" font-size="72" letter-spacing="1">and</tspan><tspan x="180.2" y="164" font-family="'ArialLol1'" font-size="72" letter-spacing="2"> </tspan><tspan x="187" y="164" font-family="'ArialLol1'" font-size="72" letter-spacing="1">video</tspan><tspan x="284.2" y="164" font-family="'ArialLol1'" font-size="72" letter-spacing="2"> </tspan><tspan x="290.9" y="164" font-family="'ArialLol1'" font-size="72" letter-spacing="1">art</tspan><tspan x="349.2" y="164" font-family="'ArialLol1'" font-size="72" letter-spacing="2"> </tspan><tspan x="355.9" y="164" font-family="'ArialLol1'" font-size="72" letter-spacing="1">in</tspan><tspan x="390.3" y="164" font-family="'ArialLol1'" font-size="72" letter-spacing="2"> </tspan><tspan x="397" y="164" font-family="'ArialLol1'" font-size="72" letter-spacing="1">a</tspan><tspan x="416.5" y="164" font-family="'ArialLol1'" font-size="72" letter-spacing="2"> </tspan><tspan x="423.2" y="164" font-family="'ArialLol1'" font-size="72" letter-spacing="1">unique</tspan><tspan x="548.8" y="164" font-family="'ArialLol1'" font-size="72" letter-spacing="2"> </tspan><tspan x="555.6" y="164" font-family="'ArialLol1'" font-size="72" letter-spacing="1">one-night</tspan><tspan x="744" y="164" font-family="'ArialLol1'" font-size="72" letter-spacing="2"> </tspan><tspan x="750.7" y="164" font-family="'ArialLol1'" font-size="72" letter-spacing="1">event</tspan></text>
<rect x="576" y="-42.1" fill="none" width="851" height="315"/>
<text transform="matrix(1 0 0 1 575.9502 -10.4923)"><tspan x="0" y="0" font-family="'ArialLol1'" font-size="72">Student</tspan><tspan x="166.5" y="0" font-family="'ArialLol1'" font-size="72" letter-spacing="14"> </tspan><tspan x="185.8" y="0" font-family="'ArialLol1'" font-size="72">designers,</tspan><tspan x="383.8" y="0" font-family="'ArialLol1'" font-size="72" letter-spacing="14"> </tspan><tspan x="403" y="0" font-family="'ArialLol1'" font-size="72">models,</tspan><tspan x="556" y="0" font-family="'ArialLol1'" font-size="72" letter-spacing="14"> </tspan><tspan x="575.2" y="0" font-family="'ArialLol1'" font-size="72">dancers,</tspan><tspan x="755.2" y="0" font-family="'ArialLol1'" font-size="72" letter-spacing="14"> </tspan><tspan x="774.5" y="0" font-family="'ArialLol1'" font-size="72">and </tspan><tspan x="0" y="36" font-family="'ArialLol1'" font-size="72">artists</tspan><tspan x="148.5" y="36" font-family="'ArialLol1'" font-size="72" letter-spacing="20"> </tspan><tspan x="173.8" y="36" font-family="'ArialLol1'" font-size="72">bring</tspan><tspan x="281.8" y="36" font-family="'ArialLol1'" font-size="72" letter-spacing="20"> </tspan><tspan x="307.1" y="36" font-family="'ArialLol1'" font-size="72">their</tspan><tspan x="410.6" y="36" font-family="'ArialLol1'" font-size="72" letter-spacing="20"> </tspan><tspan x="435.9" y="36" font-family="'ArialLol1'" font-size="72">skills</tspan><tspan x="539.4" y="36" font-family="'ArialLol1'" font-size="72" letter-spacing="20"> </tspan><tspan x="564.7" y="36" font-family="'ArialLol1'" font-size="72">together</tspan><tspan x="767.2" y="36" font-family="'ArialLol1'" font-size="72" letter-spacing="20"> </tspan><tspan x="792.5" y="36" font-family="'ArialLol1'" font-size="72">to </tspan><tspan x="0" y="72" font-family="'ArialLol1'" font-size="72">produce</tspan><tspan x="180" y="72" font-family="'ArialLol1'" font-size="72" letter-spacing="20"> </tspan><tspan x="204.9" y="72" font-family="'ArialLol1'" font-size="72">Lunar</tspan><tspan x="317.4" y="72" font-family="'ArialLol1'" font-size="72" letter-spacing="20"> </tspan><tspan x="342.2" y="72" font-family="'ArialLol1'" font-size="72">Gala,</tspan><tspan x="450.2" y="72" font-family="'ArialLol1'" font-size="72" letter-spacing="20"> </tspan><tspan x="475.1" y="72" font-family="'ArialLol1'" font-size="72">Carnegie</tspan><tspan x="659.6" y="72" font-family="'ArialLol1'" font-size="72" letter-spacing="20"> </tspan><tspan x="684.5" y="72" font-family="'ArialLol1'" font-size="72">Mellon’s </tspan><tspan x="0" y="108" font-family="'ArialLol1'" font-size="72">largest</tspan><tspan x="162" y="108" font-family="'ArialLol1'" font-size="72" letter-spacing="12"> </tspan><tspan x="179.2" y="108" font-family="'ArialLol1'" font-size="72">annual</tspan><tspan x="318.7" y="108" font-family="'ArialLol1'" font-size="72" letter-spacing="12"> </tspan><tspan x="335.9" y="108" font-family="'ArialLol1'" font-size="72">show.</tspan><tspan x="461.9" y="108" font-family="'ArialLol1'" font-size="72" letter-spacing="12"> </tspan><tspan x="479.1" y="108" font-family="'ArialLol1'" font-size="72">Lunar</tspan><tspan x="591.6" y="108" font-family="'ArialLol1'" font-size="72" letter-spacing="12"> </tspan><tspan x="608.8" y="108" font-family="'ArialLol1'" font-size="72">Gala</tspan><tspan x="707.8" y="108" font-family="'ArialLol1'" font-size="72" letter-spacing="12"> </tspan><tspan x="725" y="108" font-family="'ArialLol1'" font-size="72">brings </tspan><tspan x="0" y="144" font-family="'ArialLol1'" font-size="72">together</tspan><tspan x="202.5" y="144" font-family="'ArialLol1'" font-size="72" letter-spacing="2"> </tspan><tspan x="209.8" y="144" font-family="'ArialLol1'" font-size="72">fashion</tspan><tspan x="362.8" y="144" font-family="'ArialLol1'" font-size="72" letter-spacing="2"> </tspan><tspan x="370.1" y="144" font-family="'ArialLol1'" font-size="72">design,</tspan><tspan x="505.1" y="144" font-family="'ArialLol1'" font-size="72" letter-spacing="2"> </tspan><tspan x="512.4" y="144" font-family="'ArialLol1'" font-size="72">dance</tspan><tspan x="642.9" y="144" font-family="'ArialLol1'" font-size="72" letter-spacing="2"> </tspan><tspan x="650.2" y="144" font-family="'ArialLol1'" font-size="72">and</tspan><tspan x="726.7" y="144" font-family="'ArialLol1'" font-size="72" letter-spacing="2"> </tspan><tspan x="734" y="144" font-family="'ArialLol1'" font-size="72">video </tspan><tspan x="0" y="180" font-family="'ArialLol1'" font-size="72">art</tspan><tspan x="76.5" y="180" font-family="'ArialLol1'" font-size="72" letter-spacing="47"> </tspan><tspan x="128.8" y="180" font-family="'ArialLol1'" font-size="72">in</tspan><tspan x="160.3" y="180" font-family="'ArialLol1'" font-size="72" letter-spacing="47"> </tspan><tspan x="212.6" y="180" font-family="'ArialLol1'" font-size="72">a</tspan><tspan x="239.6" y="180" font-family="'ArialLol1'" font-size="72" letter-spacing="47"> </tspan><tspan x="291.9" y="180" font-family="'ArialLol1'" font-size="72">unique</tspan><tspan x="422.4" y="180" font-family="'ArialLol1'" font-size="72" letter-spacing="47"> </tspan><tspan x="474.7" y="180" font-family="'ArialLol1'" font-size="72">one-night</tspan><tspan x="677.2" y="180" font-family="'ArialLol1'" font-size="72" letter-spacing="47"> </tspan><tspan x="729.5" y="180" font-family="'ArialLol1'" font-size="72">event</tspan></text>
<g>
	<path d="M0,1249.9v-14.4h14.4v9.6H9.6v-4.8H4.8v9.6H0z M0,1269.2v-9.6h4.8v4.8h4.8v-9.6H4.8v-4.8h9.6v19.2H0z"/>
	<path d="M35,1269.2v-28.9h-9.6v-4.8h24.1v4.8h-9.6v28.9H35z"/>
	<path d="M60.4,1264.3v-28.9h4.8v28.9H60.4z M65.3,1269.2v-4.8h9.6v4.8H65.3z M74.9,1264.3v-28.9h4.8v28.9H74.9z"/>
	<path d="M90.7,1269.2v-33.7h19.2v4.8H95.5v24.1h14.4v4.8H90.7z M109.9,1264.3v-24.1h4.8v24.1H109.9z"/>
	<path d="M125.7,1269.2v-33.7H145v4.8h-14.4v9.6H145v4.8h-14.4v9.6H145v4.8H125.7z"/>
	<path d="M155.9,1269.2v-33.7h4.8v4.8h4.8v9.6h4.8v-14.4h4.8v33.7h-4.8v-4.8h-4.8v-9.6h-4.8v14.4H155.9z"/>
	<path d="M195.8,1269.2v-28.9h-9.6v-4.8h24.1v4.8h-9.6v28.9H195.8z"/>
	<path d="M299.1,1269.2v-33.7h19.2v4.8h-14.4v24.1h14.4v4.8H299.1z M318.4,1264.3v-24.1h4.8v24.1H318.4z"/>
	<path d="M334.2,1269.2v-33.7h19.2v4.8H339v9.6h14.4v4.8H339v9.6h14.4v4.8H334.2z"/>
	<path d="M364.4,1249.9v-14.4h14.4v9.6H374v-4.8h-4.8v9.6H364.4z M364.4,1269.2v-9.6h4.8v4.8h4.8v-9.6h-4.8v-4.8h9.6v19.2H364.4z"/>
	<path d="M389.8,1269.2v-33.7h4.8v33.7H389.8z"/>
	<path d="M410.4,1269.2v-4.8h-4.8v-24.1h4.8v-4.8h14.4v4.8h-9.6v4.8h-4.8v14.4h4.8v4.8h9.6v4.8H410.4z M424.8,1264.3v-9.6H420v-4.8
		h9.6v14.4H424.8z M424.8,1245.1v-4.8h4.8v4.8H424.8z"/>
	<path d="M440.6,1269.2v-33.7h4.8v4.8h4.8v9.6h4.8v-14.4h4.8v33.7H455v-4.8h-4.8v-9.6h-4.8v14.4H440.6z"/>
	<path d="M470.8,1269.2v-33.7h19.2v4.8h-14.4v9.6h14.4v4.8h-14.4v9.6h14.4v4.8H470.8z"/>
	<path d="M501.1,1269.2v-33.7h19.2v14.4h-4.8v-9.6h-9.6v9.6h9.6v14.4h-4.8v-9.6h-4.8v14.4H501.1z M515.5,1269.2v-4.8h4.8v4.8H515.5z
		"/>
	<path d="M531.3,1249.9v-14.4h14.4v9.6h-4.8v-4.8h-4.8v9.6H531.3z M531.3,1269.2v-9.6h4.8v4.8h4.8v-9.6h-4.8v-4.8h9.6v19.2H531.3z"
		/>
	<path d="M556.7,1278.8v-14.4h4.8v14.4H556.7z"/>
	<path d="M650.4,1269.2v-33.7h9.6v24.1h-4.8v9.6H650.4z M660,1269.2v-9.6h4.8v9.6H660z M669.7,1269.2v-9.6h-4.8v-24.1h9.6v33.7
		H669.7z"/>
	<path d="M690.3,1269.2v-4.8h-4.8v-24.1h4.8v-4.8h19.2v4.8h4.8v24.1h-4.8v4.8H690.3z M704.7,1264.3v-4.8h4.8v-14.4h-4.8v-4.8h-9.6
		v4.8h-4.8v14.4h4.8v4.8H704.7z"/>
	<path d="M725.3,1269.2v-33.7h19.2v4.8h-14.4v24.1h14.4v4.8H725.3z M744.5,1264.3v-24.1h4.8v24.1H744.5z"/>
	<path d="M760.3,1269.2v-33.7h19.2v4.8h-14.4v9.6h14.4v4.8h-14.4v9.6h14.4v4.8H760.3z"/>
	<path d="M790.6,1269.2v-33.7h4.8v28.9h9.6v4.8H790.6z"/>
	<path d="M816,1249.9v-14.4h14.4v9.6h-4.8v-4.8h-4.8v9.6H816z M816,1269.2v-9.6h4.8v4.8h4.8v-9.6h-4.8v-4.8h9.6v19.2H816z"/>
	<path d="M841.4,1278.8v-14.4h4.8v14.4H841.4z"/>
	<path d="M0,1309.2v-33.7h19.2v4.8H4.8v24.1h14.4v4.8H0z M19.2,1304.3v-24.1h4.8v24.1H19.2z"/>
	<path d="M35,1309.2v-9.6h4.8v9.6H35z M39.8,1299.5v-19.2h4.8v14.4h4.8v-14.4h4.8v19.2H39.8z M44.7,1280.3v-4.8h4.8v4.8H44.7z
		 M54.3,1309.2v-9.6h4.8v9.6H54.3z"/>
	<path d="M70.1,1309.2v-33.7h4.8v4.8h4.8v9.6h4.8v-14.4h4.8v33.7h-4.8v-4.8h-4.8v-9.6h-4.8v14.4H70.1z"/>
	<path d="M105.1,1309.2v-4.8h-4.8v-24.1h4.8v-4.8h19.2v4.8h-14.4v4.8h-4.8v14.4h4.8v4.8h14.4v4.8H105.1z M124.4,1285.1v-4.8h4.8v4.8
		H124.4z M124.4,1304.3v-4.8h4.8v4.8H124.4z"/>
	<path d="M140.1,1309.2v-33.7h19.2v4.8H145v9.6h14.4v4.8H145v9.6h14.4v4.8H140.1z"/>
	<path d="M170.4,1309.2v-33.7h19.2v14.4h-4.8v-9.6h-9.6v9.6h9.6v14.4H180v-9.6h-4.8v14.4H170.4z M184.8,1309.2v-4.8h4.8v4.8H184.8z"
		/>
	<path d="M200.6,1289.9v-14.4H215v9.6h-4.8v-4.8h-4.8v9.6H200.6z M200.6,1309.2v-9.6h4.8v4.8h4.8v-9.6h-4.8v-4.8h9.6v19.2H200.6z"/>
	<path d="M226,1318.8v-14.4h4.8v14.4H226z"/>
	<path d="M297.4,1309.2v-9.6h4.8v9.6H297.4z M302.2,1299.5v-19.2h4.8v14.4h4.8v-14.4h4.8v19.2H302.2z M307,1280.3v-4.8h4.8v4.8H307z
		 M316.6,1309.2v-9.6h4.8v9.6H316.6z"/>
	<path d="M332.4,1309.2v-33.7h4.8v4.8h4.8v9.6h4.8v-14.4h4.8v33.7h-4.8v-4.8h-4.8v-9.6h-4.8v14.4H332.4z"/>
	<path d="M362.7,1309.2v-33.7h19.2v4.8h-14.4v24.1h14.4v4.8H362.7z M381.9,1304.3v-24.1h4.8v24.1H381.9z"/>
	<path d="M453.3,1309.2v-9.6h4.8v9.6H453.3z M458.1,1299.5v-19.2h4.8v14.4h4.8v-14.4h4.8v19.2H458.1z M462.9,1280.3v-4.8h4.8v4.8
		H462.9z M472.6,1309.2v-9.6h4.8v9.6H472.6z"/>
	<path d="M488.3,1309.2v-33.7h19.2v14.4h-4.8v-9.6h-9.6v9.6h9.6v14.4H498v-9.6h-4.8v14.4H488.3z M502.8,1309.2v-4.8h4.8v4.8H502.8z"
		/>
	<path d="M528.2,1309.2v-28.9h-9.6v-4.8h24.1v4.8H533v28.9H528.2z"/>
	<path d="M553.6,1309.2v-33.7h4.8v33.7H553.6z"/>
	<path d="M569.4,1289.9v-14.4h14.4v9.6H579v-4.8h-4.8v9.6H569.4z M569.4,1309.2v-9.6h4.8v4.8h4.8v-9.6h-4.8v-4.8h9.6v19.2H569.4z"/>
	<path d="M604.4,1309.2v-28.9h-9.6v-4.8h24.1v4.8h-9.6v28.9H604.4z"/>
	<path d="M629.8,1289.9v-14.4h14.4v9.6h-4.8v-4.8h-4.8v9.6H629.8z M629.8,1309.2v-9.6h4.8v4.8h4.8v-9.6h-4.8v-4.8h9.6v19.2H629.8z"
		/>
	<path d="M710.9,1309.2v-33.7h19.2v4.8h-14.4v9.6h14.4v4.8h-14.4v9.6h14.4v4.8H710.9z M730.1,1289.9v-9.6h4.8v9.6H730.1z
		 M730.1,1304.3v-9.6h4.8v9.6H730.1z"/>
	<path d="M745.9,1309.2v-33.7h19.2v14.4h-4.8v-9.6h-9.6v9.6h9.6v14.4h-4.8v-9.6h-4.8v14.4H745.9z M760.3,1309.2v-4.8h4.8v4.8H760.3z
		"/>
	<path d="M776.1,1309.2v-33.7h4.8v33.7H776.1z"/>
	<path d="M791.9,1309.2v-33.7h4.8v4.8h4.8v9.6h4.8v-14.4h4.8v33.7h-4.8v-4.8h-4.8v-9.6h-4.8v14.4H791.9z"/>
	<path d="M826.9,1309.2v-4.8h-4.8v-24.1h4.8v-4.8h14.4v4.8h-9.6v4.8h-4.8v14.4h4.8v4.8h9.6v4.8H826.9z M841.4,1304.3v-9.6h-4.8v-4.8
		h9.6v14.4H841.4z M841.4,1285.1v-4.8h4.8v4.8H841.4z"/>
	<path d="M9.6,1349.2v-28.9H0v-4.8h24.1v4.8h-9.6v28.9H9.6z"/>
	<path d="M35,1349.2v-33.7h4.8v14.4h9.6v-14.4h4.8v33.7h-4.8v-14.4h-9.6v14.4H35z"/>
	<path d="M65.3,1349.2v-33.7h19.2v4.8H70.1v9.6h14.4v4.8H70.1v9.6h14.4v4.8H65.3z"/>
	<path d="M95.5,1349.2v-33.7h4.8v33.7H95.5z"/>
	<path d="M111.3,1349.2v-33.7h19.2v14.4h-4.8v-9.6h-9.6v9.6h9.6v14.4h-4.8v-9.6h-4.8v14.4H111.3z M125.7,1349.2v-4.8h4.8v4.8H125.7z
		"/>
	<path d="M217.3,1329.9v-14.4h14.4v9.6h-4.8v-4.8h-4.8v9.6H217.3z M217.3,1349.2v-9.6h4.8v4.8h4.8v-9.6h-4.8v-4.8h9.6v19.2H217.3z"
		/>
	<path d="M242.7,1349.2v-33.7h4.8v14.4h4.8v-9.6h4.8v19.2h-4.8v-4.8h-4.8v14.4H242.7z M257.1,1320.3v-4.8h4.8v4.8H257.1z
		 M257.1,1349.2v-9.6h4.8v9.6H257.1z"/>
	<path d="M272.9,1349.2v-33.7h4.8v33.7H272.9z"/>
	<path d="M288.7,1349.2v-33.7h4.8v28.9h9.6v4.8H288.7z"/>
	<path d="M314.1,1349.2v-33.7h4.8v28.9h9.6v4.8H314.1z"/>
	<path d="M339.5,1329.9v-14.4h14.4v9.6h-4.8v-4.8h-4.8v9.6H339.5z M339.5,1349.2v-9.6h4.8v4.8h4.8v-9.6h-4.8v-4.8h9.6v19.2H339.5z"
		/>
	<path d="M450.3,1349.2v-28.9h-9.6v-4.8h24.1v4.8h-9.6v28.9H450.3z"/>
	<path d="M480.5,1349.2v-4.8h-4.8v-24.1h4.8v-4.8h19.2v4.8h4.8v24.1h-4.8v4.8H480.5z M495,1344.3v-4.8h4.8v-14.4H495v-4.8h-9.6v4.8
		h-4.8v14.4h4.8v4.8H495z"/>
	<path d="M520.4,1349.2v-4.8h-4.8v-24.1h4.8v-4.8h14.4v4.8h-9.6v4.8h-4.8v14.4h4.8v4.8h9.6v4.8H520.4z M534.8,1344.3v-9.6H530v-4.8
		h9.6v14.4H534.8z M534.8,1325.1v-4.8h4.8v4.8H534.8z"/>
	<path d="M550.6,1349.2v-33.7h19.2v4.8h-14.4v9.6h14.4v4.8h-14.4v9.6h14.4v4.8H550.6z"/>
	<path d="M590.4,1349.2v-28.9h-9.6v-4.8h24.1v4.8h-9.6v28.9H590.4z"/>
	<path d="M615.8,1349.2v-33.7h4.8v14.4h9.6v-14.4h4.8v33.7h-4.8v-14.4h-9.6v14.4H615.8z"/>
	<path d="M646.1,1349.2v-33.7h19.2v4.8h-14.4v9.6h14.4v4.8h-14.4v9.6h14.4v4.8H646.1z"/>
	<path d="M676.3,1349.2v-33.7h19.2v14.4h-4.8v-9.6h-9.6v9.6h9.6v14.4h-4.8v-9.6h-4.8v14.4H676.3z M690.7,1349.2v-4.8h4.8v4.8H690.7z
		"/>
	<path d="M791.9,1349.2v-28.9h-9.6v-4.8h24.1v4.8h-9.6v28.9H791.9z"/>
	<path d="M822.1,1349.2v-4.8h-4.8v-24.1h4.8v-4.8h19.2v4.8h4.8v24.1h-4.8v4.8H822.1z M836.6,1344.3v-4.8h4.8v-14.4h-4.8v-4.8h-9.6
		v4.8h-4.8v14.4h4.8v4.8H836.6z"/>
	<path d="M0,1389.2v-33.7h19.2v14.4h-4.8v-9.6H4.8v9.6h9.6v4.8H4.8v14.4H0z"/>
	<path d="M30.2,1389.2v-33.7h19.2v14.4h-4.8v-9.6H35v9.6h9.6v14.4h-4.8v-9.6H35v14.4H30.2z M44.7,1389.2v-4.8h4.8v4.8H44.7z"/>
	<path d="M65.3,1389.2v-4.8h-4.8v-24.1h4.8v-4.8h19.2v4.8h4.8v24.1h-4.8v4.8H65.3z M79.7,1384.3v-4.8h4.8v-14.4h-4.8v-4.8h-9.6v4.8
		h-4.8v14.4h4.8v4.8H79.7z"/>
	<path d="M100.3,1389.2v-33.7h19.2v4.8h-14.4v24.1h14.4v4.8H100.3z M119.5,1384.3v-24.1h4.8v24.1H119.5z"/>
	<path d="M135.3,1384.3v-28.9h4.8v28.9H135.3z M140.1,1389.2v-4.8h9.6v4.8H140.1z M149.8,1384.3v-28.9h4.8v28.9H149.8z"/>
	<path d="M170.4,1389.2v-4.8h-4.8v-24.1h4.8v-4.8h19.2v4.8h-14.4v4.8h-4.8v14.4h4.8v4.8h14.4v4.8H170.4z M189.6,1365.1v-4.8h4.8v4.8
		H189.6z M189.6,1384.3v-4.8h4.8v4.8H189.6z"/>
	<path d="M205.4,1389.2v-33.7h19.2v4.8h-14.4v9.6h14.4v4.8h-14.4v9.6h14.4v4.8H205.4z"/>
	<path d="M261.5,1389.2v-33.7h4.8v28.9h9.6v4.8H261.5z"/>
	<path d="M286.9,1384.3v-28.9h4.8v28.9H286.9z M291.7,1389.2v-4.8h9.6v4.8H291.7z M301.3,1384.3v-28.9h4.8v28.9H301.3z"/>
	<path d="M317.1,1389.2v-33.7h4.8v4.8h4.8v9.6h4.8v-14.4h4.8v33.7h-4.8v-4.8h-4.8v-9.6h-4.8v14.4H317.1z"/>
	<path d="M347.3,1389.2v-9.6h4.8v9.6H347.3z M352.1,1379.5v-19.2h4.8v14.4h4.8v-14.4h4.8v19.2H352.1z M356.9,1360.3v-4.8h4.8v4.8
		H356.9z M366.6,1389.2v-9.6h4.8v9.6H366.6z"/>
	<path d="M382.4,1389.2v-33.7h19.2v14.4h-4.8v-9.6h-9.6v9.6h9.6v14.4H392v-9.6h-4.8v14.4H382.4z M396.8,1389.2v-4.8h4.8v4.8H396.8z"
		/>
	<path d="M443.2,1389.2v-4.8h-4.8v-24.1h4.8v-4.8h14.4v4.8H448v4.8h-4.8v14.4h4.8v4.8h9.6v4.8H443.2z M457.7,1384.3v-9.6h-4.8v-4.8
		h9.6v14.4H457.7z M457.7,1365.1v-4.8h4.8v4.8H457.7z"/>
	<path d="M473.5,1389.2v-9.6h4.8v9.6H473.5z M478.3,1379.5v-19.2h4.8v14.4h4.8v-14.4h4.8v19.2H478.3z M483.1,1360.3v-4.8h4.8v4.8
		H483.1z M492.7,1389.2v-9.6h4.8v9.6H492.7z"/>
	<path d="M508.5,1389.2v-33.7h4.8v28.9h9.6v4.8H508.5z"/>
	<path d="M533.9,1389.2v-9.6h4.8v9.6H533.9z M538.7,1379.5v-19.2h4.8v14.4h4.8v-14.4h4.8v19.2H538.7z M543.5,1360.3v-4.8h4.8v4.8
		H543.5z M553.2,1389.2v-9.6h4.8v9.6H553.2z"/>
	<path d="M568.9,1398.8v-14.4h4.8v14.4H568.9z"/>
	<path d="M615.4,1389.2v-4.8h-4.8v-24.1h4.8v-4.8h19.2v4.8h-14.4v4.8h-4.8v14.4h4.8v4.8h14.4v4.8H615.4z M634.6,1365.1v-4.8h4.8v4.8
		H634.6z M634.6,1384.3v-4.8h4.8v4.8H634.6z"/>
	<path d="M650.4,1389.2v-9.6h4.8v9.6H650.4z M655.2,1379.5v-19.2h4.8v14.4h4.8v-14.4h4.8v19.2H655.2z M660,1360.3v-4.8h4.8v4.8H660z
		 M669.7,1389.2v-9.6h4.8v9.6H669.7z"/>
	<path d="M685.5,1389.2v-33.7h19.2v14.4h-4.8v-9.6h-9.6v9.6h9.6v14.4h-4.8v-9.6h-4.8v14.4H685.5z M699.9,1389.2v-4.8h4.8v4.8H699.9z
		"/>
	<path d="M715.7,1389.2v-33.7h4.8v4.8h4.8v9.6h4.8v-14.4h4.8v33.7h-4.8v-4.8h-4.8v-9.6h-4.8v14.4H715.7z"/>
	<path d="M745.9,1389.2v-33.7h19.2v4.8h-14.4v9.6h14.4v4.8h-14.4v9.6h14.4v4.8H745.9z"/>
	<path d="M780.9,1389.2v-4.8h-4.8v-24.1h4.8v-4.8h14.4v4.8h-9.6v4.8h-4.8v14.4h4.8v4.8h9.6v4.8H780.9z M795.4,1384.3v-9.6h-4.8v-4.8
		h9.6v14.4H795.4z M795.4,1365.1v-4.8h4.8v4.8H795.4z"/>
	<path d="M811.2,1389.2v-33.7h4.8v33.7H811.2z"/>
	<path d="M826.9,1389.2v-33.7h19.2v4.8h-14.4v9.6h14.4v4.8h-14.4v9.6h14.4v4.8H826.9z"/>
	<path d="M0,1429.2v-33.7h9.6v24.1H4.8v9.6H0z M9.6,1429.2v-9.6h4.8v9.6H9.6z M19.2,1429.2v-9.6h-4.8v-24.1h9.6v33.7H19.2z"/>
	<path d="M35,1429.2v-33.7h19.2v4.8H39.8v9.6h14.4v4.8H39.8v9.6h14.4v4.8H35z"/>
	<path d="M65.3,1429.2v-33.7h4.8v28.9h9.6v4.8H65.3z"/>
	<path d="M90.7,1429.2v-33.7h4.8v28.9h9.6v4.8H90.7z"/>
	<path d="M120.9,1429.2v-4.8h-4.8v-24.1h4.8v-4.8h19.2v4.8h4.8v24.1h-4.8v4.8H120.9z M135.3,1424.3v-4.8h4.8v-14.4h-4.8v-4.8h-9.6
		v4.8h-4.8v14.4h4.8v4.8H135.3z"/>
	<path d="M155.9,1429.2v-33.7h4.8v4.8h4.8v9.6h4.8v-14.4h4.8v33.7h-4.8v-4.8h-4.8v-9.6h-4.8v14.4H155.9z"/>
	<path d="M186.1,1409.9v-14.4h4.8v14.4H186.1z"/>
	<path d="M201.9,1409.9v-14.4h14.4v9.6h-4.8v-4.8h-4.8v9.6H201.9z M201.9,1429.2v-9.6h4.8v4.8h4.8v-9.6h-4.8v-4.8h9.6v19.2H201.9z"
		/>
	<path d="M247.9,1429.2v-33.7h4.8v28.9h9.6v4.8H247.9z"/>
	<path d="M273.3,1429.2v-9.6h4.8v9.6H273.3z M278.1,1419.5v-19.2h4.8v14.4h4.8v-14.4h4.8v19.2H278.1z M283,1400.3v-4.8h4.8v4.8H283z
		 M292.6,1429.2v-9.6h4.8v9.6H292.6z"/>
	<path d="M308.4,1429.2v-33.7h19.2v14.4h-4.8v-9.6h-9.6v9.6h9.6v14.4H318v-9.6h-4.8v14.4H308.4z M322.8,1429.2v-4.8h4.8v4.8H322.8z"
		/>
	<path d="M343.4,1429.2v-4.8h-4.8v-24.1h4.8v-4.8h14.4v4.8h-9.6v4.8h-4.8v14.4h4.8v4.8h9.6v4.8H343.4z M357.8,1424.3v-9.6H353v-4.8
		h9.6v14.4H357.8z M357.8,1405.1v-4.8h4.8v4.8H357.8z"/>
	<path d="M373.6,1429.2v-33.7h19.2v4.8h-14.4v9.6h14.4v4.8h-14.4v9.6h14.4v4.8H373.6z"/>
	<path d="M403.9,1409.9v-14.4h14.4v9.6h-4.8v-4.8h-4.8v9.6H403.9z M403.9,1429.2v-9.6h4.8v4.8h4.8v-9.6h-4.8v-4.8h9.6v19.2H403.9z"
		/>
	<path d="M438.9,1429.2v-28.9h-9.6v-4.8h24.1v4.8h-9.6v28.9H438.9z"/>
	<path d="M484.9,1429.2v-9.6h4.8v9.6H484.9z M489.7,1419.5v-19.2h4.8v14.4h4.8v-14.4h4.8v19.2H489.7z M494.5,1400.3v-4.8h4.8v4.8
		H494.5z M504.1,1429.2v-9.6h4.8v9.6H504.1z"/>
	<path d="M519.9,1429.2v-33.7h4.8v4.8h4.8v9.6h4.8v-14.4h4.8v33.7h-4.8v-4.8h-4.8v-9.6h-4.8v14.4H519.9z"/>
	<path d="M550.1,1429.2v-33.7h4.8v4.8h4.8v9.6h4.8v-14.4h4.8v33.7h-4.8v-4.8h-4.8v-9.6H555v14.4H550.1z"/>
	<path d="M580.4,1424.3v-28.9h4.8v28.9H580.4z M585.2,1429.2v-4.8h9.6v4.8H585.2z M594.8,1424.3v-28.9h4.8v28.9H594.8z"/>
	<path d="M610.6,1429.2v-9.6h4.8v9.6H610.6z M615.4,1419.5v-19.2h4.8v14.4h4.8v-14.4h4.8v19.2H615.4z M620.2,1400.3v-4.8h4.8v4.8
		H620.2z M629.8,1429.2v-9.6h4.8v9.6H629.8z"/>
	<path d="M645.6,1429.2v-33.7h4.8v28.9h9.6v4.8H645.6z"/>
	<path d="M691.6,1409.9v-14.4H706v9.6h-4.8v-4.8h-4.8v9.6H691.6z M691.6,1429.2v-9.6h4.8v4.8h4.8v-9.6h-4.8v-4.8h9.6v19.2H691.6z"/>
	<path d="M717,1429.2v-33.7h4.8v14.4h9.6v-14.4h4.8v33.7h-4.8v-14.4h-9.6v14.4H717z"/>
	<path d="M752.1,1429.2v-4.8h-4.8v-24.1h4.8v-4.8h19.2v4.8h4.8v24.1h-4.8v4.8H752.1z M766.5,1424.3v-4.8h4.8v-14.4h-4.8v-4.8h-9.6
		v4.8h-4.8v14.4h4.8v4.8H766.5z"/>
	<path d="M787.1,1405.1v-9.6h4.8v9.6H787.1z M791.9,1419.5v-14.4h4.8v14.4H791.9z M796.7,1429.2v-9.6h4.8v9.6H796.7z M801.5,1419.5
		v-14.4h4.8v14.4H801.5z M806.3,1405.1v-9.6h4.8v9.6H806.3z M811.2,1419.5v-14.4h4.8v14.4H811.2z M816,1429.2v-9.6h4.8v9.6H816z
		 M820.8,1419.5v-14.4h4.8v14.4H820.8z M825.6,1405.1v-9.6h4.8v9.6H825.6z"/>
	<path d="M841.4,1429.2v-4.8h4.8v4.8H841.4z"/>
	<path d="M0,1469.2v-33.7h4.8v28.9h9.6v4.8H0z"/>
	<path d="M25.4,1464.3v-28.9h4.8v28.9H25.4z M30.2,1469.2v-4.8h9.6v4.8H30.2z M39.8,1464.3v-28.9h4.8v28.9H39.8z"/>
	<path d="M55.6,1469.2v-33.7h4.8v4.8h4.8v9.6h4.8v-14.4h4.8v33.7h-4.8v-4.8h-4.8v-9.6h-4.8v14.4H55.6z"/>
	<path d="M85.9,1469.2v-9.6h4.8v9.6H85.9z M90.7,1459.5v-19.2h4.8v14.4h4.8v-14.4h4.8v19.2H90.7z M95.5,1440.3v-4.8h4.8v4.8H95.5z
		 M105.1,1469.2v-9.6h4.8v9.6H105.1z"/>
	<path d="M120.9,1469.2v-33.7h19.2v14.4h-4.8v-9.6h-9.6v9.6h9.6v14.4h-4.8v-9.6h-4.8v14.4H120.9z M135.3,1469.2v-4.8h4.8v4.8H135.3z
		"/>
	<path d="M201.9,1469.2v-4.8h-4.8v-24.1h4.8v-4.8h14.4v4.8h-9.6v4.8h-4.8v14.4h4.8v4.8h9.6v4.8H201.9z M216.4,1464.3v-9.6h-4.8v-4.8
		h9.6v14.4H216.4z M216.4,1445.1v-4.8h4.8v4.8H216.4z"/>
	<path d="M232.1,1469.2v-9.6h4.8v9.6H232.1z M237,1459.5v-19.2h4.8v14.4h4.8v-14.4h4.8v19.2H237z M241.8,1440.3v-4.8h4.8v4.8H241.8z
		 M251.4,1469.2v-9.6h4.8v9.6H251.4z"/>
	<path d="M267.2,1469.2v-33.7h4.8v28.9h9.6v4.8H267.2z"/>
	<path d="M292.6,1469.2v-9.6h4.8v9.6H292.6z M297.4,1459.5v-19.2h4.8v14.4h4.8v-14.4h4.8v19.2H297.4z M302.2,1440.3v-4.8h4.8v4.8
		H302.2z M311.8,1469.2v-9.6h4.8v9.6H311.8z"/>
	<path d="M373.6,1469.2v-33.7h19.2v4.8h-14.4v9.6h14.4v4.8h-14.4v9.6h14.4v4.8H373.6z M392.9,1449.9v-9.6h4.8v9.6H392.9z
		 M392.9,1464.3v-9.6h4.8v9.6H392.9z"/>
	<path d="M408.7,1469.2v-33.7h19.2v14.4h-4.8v-9.6h-9.6v9.6h9.6v14.4h-4.8v-9.6h-4.8v14.4H408.7z M423.1,1469.2v-4.8h4.8v4.8H423.1z
		"/>
	<path d="M438.9,1469.2v-33.7h4.8v33.7H438.9z"/>
	<path d="M454.7,1469.2v-33.7h4.8v4.8h4.8v9.6h4.8v-14.4h4.8v33.7h-4.8v-4.8h-4.8v-9.6h-4.8v14.4H454.7z"/>
	<path d="M489.7,1469.2v-4.8h-4.8v-24.1h4.8v-4.8h14.4v4.8h-9.6v4.8h-4.8v14.4h4.8v4.8h9.6v4.8H489.7z M504.1,1464.3v-9.6h-4.8v-4.8
		h9.6v14.4H504.1z M504.1,1445.1v-4.8h4.8v4.8H504.1z"/>
	<path d="M519.9,1449.9v-14.4h14.4v9.6h-4.8v-4.8h-4.8v9.6H519.9z M519.9,1469.2v-9.6h4.8v4.8h4.8v-9.6h-4.8v-4.8h9.6v19.2H519.9z"
		/>
	<path d="M600.9,1469.2v-28.9h-9.6v-4.8h24.1v4.8h-9.6v28.9H600.9z"/>
	<path d="M631.2,1469.2v-4.8h-4.8v-24.1h4.8v-4.8h19.2v4.8h4.8v24.1h-4.8v4.8H631.2z M645.6,1464.3v-4.8h4.8v-14.4h-4.8v-4.8H636
		v4.8h-4.8v14.4h4.8v4.8H645.6z"/>
	<path d="M671,1469.2v-4.8h-4.8v-24.1h4.8v-4.8h14.4v4.8h-9.6v4.8H671v14.4h4.8v4.8h9.6v4.8H671z M685.5,1464.3v-9.6h-4.8v-4.8h9.6
		v14.4H685.5z M685.5,1445.1v-4.8h4.8v4.8H685.5z"/>
	<path d="M701.2,1469.2v-33.7h19.2v4.8H706v9.6h14.4v4.8H706v9.6h14.4v4.8H701.2z"/>
	<path d="M741.1,1469.2v-28.9h-9.6v-4.8h24.1v4.8h-9.6v28.9H741.1z"/>
	<path d="M766.5,1469.2v-33.7h4.8v14.4h9.6v-14.4h4.8v33.7h-4.8v-14.4h-9.6v14.4H766.5z"/>
	<path d="M796.7,1469.2v-33.7H816v4.8h-14.4v9.6H816v4.8h-14.4v9.6H816v4.8H796.7z"/>
	<path d="M826.9,1469.2v-33.7h19.2v14.4h-4.8v-9.6h-9.6v9.6h9.6v14.4h-4.8v-9.6h-4.8v14.4H826.9z M841.4,1469.2v-4.8h4.8v4.8H841.4z
		"/>
	<path d="M0,1509.2v-33.7h19.2v4.8H4.8v9.6h14.4v4.8H4.8v14.4H0z"/>
	<path d="M30.2,1509.2v-9.6H35v9.6H30.2z M35,1499.5v-19.2h4.8v14.4h4.8v-14.4h4.8v19.2H35z M39.8,1480.3v-4.8h4.8v4.8H39.8z
		 M49.5,1509.2v-9.6h4.8v9.6H49.5z"/>
	<path d="M65.3,1489.9v-14.4h14.4v9.6h-4.8v-4.8h-4.8v9.6H65.3z M65.3,1509.2v-9.6h4.8v4.8h4.8v-9.6h-4.8v-4.8h9.6v19.2H65.3z"/>
	<path d="M90.7,1509.2v-33.7h4.8v14.4h9.6v-14.4h4.8v33.7h-4.8v-14.4h-9.6v14.4H90.7z"/>
	<path d="M120.9,1509.2v-33.7h4.8v33.7H120.9z"/>
	<path d="M141.5,1509.2v-4.8h-4.8v-24.1h4.8v-4.8h19.2v4.8h4.8v24.1h-4.8v4.8H141.5z M155.9,1504.3v-4.8h4.8v-14.4h-4.8v-4.8h-9.6
		v4.8h-4.8v14.4h4.8v4.8H155.9z"/>
	<path d="M176.5,1509.2v-33.7h4.8v4.8h4.8v9.6h4.8v-14.4h4.8v33.7H191v-4.8h-4.8v-9.6h-4.8v14.4H176.5z"/>
	<path d="M215.8,1509.2v-33.7h19.2v4.8h-14.4v24.1h14.4v4.8H215.8z M235.1,1504.3v-24.1h4.8v24.1H235.1z"/>
	<path d="M250.9,1509.2v-33.7h19.2v4.8h-14.4v9.6h14.4v4.8h-14.4v9.6h14.4v4.8H250.9z"/>
	<path d="M281.1,1489.9v-14.4h14.4v9.6h-4.8v-4.8h-4.8v9.6H281.1z M281.1,1509.2v-9.6h4.8v4.8h4.8v-9.6h-4.8v-4.8h9.6v19.2H281.1z"
		/>
	<path d="M306.5,1509.2v-33.7h4.8v33.7H306.5z"/>
	<path d="M327.1,1509.2v-4.8h-4.8v-24.1h4.8v-4.8h14.4v4.8h-9.6v4.8h-4.8v14.4h4.8v4.8h9.6v4.8H327.1z M341.5,1504.3v-9.6h-4.8v-4.8
		h9.6v14.4H341.5z M341.5,1485.1v-4.8h4.8v4.8H341.5z"/>
	<path d="M357.3,1509.2v-33.7h4.8v4.8h4.8v9.6h4.8v-14.4h4.8v33.7h-4.8v-4.8h-4.8v-9.6h-4.8v14.4H357.3z"/>
	<path d="M387.5,1518.8v-14.4h4.8v14.4H387.5z"/>
	<path d="M412.4,1509.2v-33.7h19.2v4.8h-14.4v24.1h14.4v4.8H412.4z M431.7,1504.3v-24.1h4.8v24.1H431.7z"/>
	<path d="M447.4,1509.2v-9.6h4.8v9.6H447.4z M452.3,1499.5v-19.2h4.8v14.4h4.8v-14.4h4.8v19.2H452.3z M457.1,1480.3v-4.8h4.8v4.8
		H457.1z M466.7,1509.2v-9.6h4.8v9.6H466.7z"/>
	<path d="M482.5,1509.2v-33.7h4.8v4.8h4.8v9.6h4.8v-14.4h4.8v33.7h-4.8v-4.8h-4.8v-9.6h-4.8v14.4H482.5z"/>
	<path d="M517.5,1509.2v-4.8h-4.8v-24.1h4.8v-4.8h19.2v4.8h-14.4v4.8h-4.8v14.4h4.8v4.8h14.4v4.8H517.5z M536.8,1485.1v-4.8h4.8v4.8
		H536.8z M536.8,1504.3v-4.8h4.8v4.8H536.8z"/>
	<path d="M552.5,1509.2v-33.7h19.2v4.8h-14.4v9.6h14.4v4.8h-14.4v9.6h14.4v4.8H552.5z"/>
	<path d="M591.9,1509.2v-9.6h4.8v9.6H591.9z M596.7,1499.5v-19.2h4.8v14.4h4.8v-14.4h4.8v19.2H596.7z M601.5,1480.3v-4.8h4.8v4.8
		H601.5z M611.1,1509.2v-9.6h4.8v9.6H611.1z"/>
	<path d="M626.9,1509.2v-33.7h4.8v4.8h4.8v9.6h4.8v-14.4h4.8v33.7h-4.8v-4.8h-4.8v-9.6h-4.8v14.4H626.9z"/>
	<path d="M657.1,1509.2v-33.7h19.2v4.8h-14.4v24.1h14.4v4.8H657.1z M676.4,1504.3v-24.1h4.8v24.1H676.4z"/>
	<path d="M701.2,1485.1v-9.6h4.8v9.6H701.2z M706,1499.5v-14.4h4.8v14.4H706z M710.9,1509.2v-9.6h4.8v9.6H710.9z M715.7,1499.5
		v-14.4h4.8v14.4H715.7z M720.5,1485.1v-9.6h4.8v9.6H720.5z"/>
	<path d="M736.3,1509.2v-33.7h4.8v33.7H736.3z"/>
	<path d="M752.1,1509.2v-33.7h19.2v4.8h-14.4v24.1h14.4v4.8H752.1z M771.3,1504.3v-24.1h4.8v24.1H771.3z"/>
	<path d="M787.1,1509.2v-33.7h19.2v4.8h-14.4v9.6h14.4v4.8h-14.4v9.6h14.4v4.8H787.1z"/>
	<path d="M822.1,1509.2v-4.8h-4.8v-24.1h4.8v-4.8h19.2v4.8h4.8v24.1h-4.8v4.8H822.1z M836.6,1504.3v-4.8h4.8v-14.4h-4.8v-4.8h-9.6
		v4.8h-4.8v14.4h4.8v4.8H836.6z"/>
	<path d="M0,1549.2v-9.6h4.8v9.6H0z M4.8,1539.5v-19.2h4.8v14.4h4.8v-14.4h4.8v19.2H4.8z M9.6,1520.3v-4.8h4.8v4.8H9.6z
		 M19.2,1549.2v-9.6h4.8v9.6H19.2z"/>
	<path d="M35,1549.2v-33.7h19.2v14.4h-4.8v-9.6h-9.6v9.6h9.6v14.4h-4.8v-9.6h-4.8v14.4H35z M49.5,1549.2v-4.8h4.8v4.8H49.5z"/>
	<path d="M74.9,1549.2v-28.9h-9.6v-4.8h24.1v4.8h-9.6v28.9H74.9z"/>
	<path d="M113.6,1549.2v-33.7h4.8v33.7H113.6z"/>
	<path d="M129.4,1549.2v-33.7h4.8v4.8h4.8v9.6h4.8v-14.4h4.8v33.7h-4.8v-4.8H139v-9.6h-4.8v14.4H129.4z"/>
	<path d="M172.9,1549.2v-9.6h4.8v9.6H172.9z M177.7,1539.5v-19.2h4.8v14.4h4.8v-14.4h4.8v19.2H177.7z M182.5,1520.3v-4.8h4.8v4.8
		H182.5z M192.2,1549.2v-9.6h4.8v9.6H192.2z"/>
	<path d="M221.3,1544.3v-28.9h4.8v28.9H221.3z M226.1,1549.2v-4.8h9.6v4.8H226.1z M235.7,1544.3v-28.9h4.8v28.9H235.7z"/>
	<path d="M251.5,1549.2v-33.7h4.8v4.8h4.8v9.6h4.8v-14.4h4.8v33.7h-4.8v-4.8h-4.8v-9.6h-4.8v14.4H251.5z"/>
	<path d="M281.7,1549.2v-33.7h4.8v33.7H281.7z"/>
	<path d="M302.3,1549.2v-4.8h-4.8v-24.1h4.8v-4.8h19.2v4.8h4.8v24.1h-4.8v4.8H302.3z M311.9,1544.3v-9.6h4.8v4.8h4.8v-14.4h-4.8
		v-4.8h-9.6v4.8h-4.8v14.4h4.8v4.8H311.9z M321.6,1554v-4.8h4.8v4.8H321.6z"/>
	<path d="M337.3,1544.3v-28.9h4.8v28.9H337.3z M342.2,1549.2v-4.8h9.6v4.8H342.2z M351.8,1544.3v-28.9h4.8v28.9H351.8z"/>
	<path d="M367.6,1549.2v-33.7h19.2v4.8h-14.4v9.6h14.4v4.8h-14.4v9.6h14.4v4.8H367.6z"/>
	<path d="M415.9,1549.2v-4.8h-4.8v-24.1h4.8v-4.8h19.2v4.8h4.8v24.1h-4.8v4.8H415.9z M430.4,1544.3v-4.8h4.8v-14.4h-4.8v-4.8h-9.6
		v4.8h-4.8v14.4h4.8v4.8H430.4z"/>
	<path d="M451,1549.2v-33.7h4.8v4.8h4.8v9.6h4.8v-14.4h4.8v33.7h-4.8v-4.8h-4.8v-9.6h-4.8v14.4H451z"/>
	<path d="M481.2,1549.2v-33.7h19.2v4.8H486v9.6h14.4v4.8H486v9.6h14.4v4.8H481.2z"/>
	<path d="M511.4,1539.5v-4.8h14.4v4.8H511.4z"/>
	<path d="M536.8,1549.2v-33.7h4.8v4.8h4.8v9.6h4.8v-14.4h4.8v33.7h-4.8v-4.8h-4.8v-9.6h-4.8v14.4H536.8z"/>
	<path d="M567,1549.2v-33.7h4.8v33.7H567z"/>
	<path d="M587.6,1549.2v-4.8h-4.8v-24.1h4.8v-4.8h14.4v4.8h-9.6v4.8h-4.8v14.4h4.8v4.8h9.6v4.8H587.6z M602.1,1544.3v-9.6h-4.8v-4.8
		h9.6v14.4H602.1z M602.1,1525.1v-4.8h4.8v4.8H602.1z"/>
	<path d="M617.9,1549.2v-33.7h4.8v14.4h9.6v-14.4h4.8v33.7h-4.8v-14.4h-9.6v14.4H617.9z"/>
	<path d="M657.7,1549.2v-28.9h-9.6v-4.8h24.1v4.8h-9.6v28.9H657.7z"/>
	<path d="M696.4,1549.2v-33.7h19.2v4.8h-14.4v9.6h14.4v4.8h-14.4v9.6h14.4v4.8H696.4z"/>
	<path d="M726.6,1525.1v-9.6h4.8v9.6H726.6z M731.5,1539.5v-14.4h4.8v14.4H731.5z M736.3,1549.2v-9.6h4.8v9.6H736.3z M741.1,1539.5
		v-14.4h4.8v14.4H741.1z M745.9,1525.1v-9.6h4.8v9.6H745.9z"/>
	<path d="M761.7,1549.2v-33.7h19.2v4.8h-14.4v9.6h14.4v4.8h-14.4v9.6h14.4v4.8H761.7z"/>
	<path d="M791.9,1549.2v-33.7h4.8v4.8h4.8v9.6h4.8v-14.4h4.8v33.7h-4.8v-4.8h-4.8v-9.6h-4.8v14.4H791.9z"/>
	<path d="M831.7,1549.2v-28.9h-9.6v-4.8h24.1v4.8h-9.6v28.9H831.7z"/>
</g>
<g>
	<path d="M0,871.9v-22.8h13.5v15.2H9v-7.6H4.5v15.2H0z M0,902.3v-15.2h4.5v7.6H9v-15.2H4.5v-7.6h9v30.4H0z"/>
	<path d="M27,902.3v-45.7h-9v-7.6h22.5v7.6h-9v45.7H27z"/>
	<path d="M45,894.7v-45.7h4.5v45.7H45z M49.5,902.3v-7.6h9v7.6H49.5z M58.5,894.7v-45.7H63v45.7H58.5z"/>
	<path d="M67.5,902.3v-53.3h18v7.6H72v38h13.5v7.6H67.5z M85.5,894.7v-38H90v38H85.5z"/>
	<path d="M94.5,902.3v-53.3h18v7.6H99v15.2h13.5v7.6H99v15.2h13.5v7.6H94.5z"/>
	<path d="M117,902.3v-53.3h4.5v7.6h4.5v15.2h4.5v-22.8h4.5v53.3h-4.5v-7.6H126v-15.2h-4.5v22.8H117z"/>
	<path d="M148.5,902.3v-45.7h-9v-7.6H162v7.6h-9v45.7H148.5z"/>
	<path d="M185.8,902.3v-53.3h18v7.6h-13.5v38h13.5v7.6H185.8z M203.8,894.7v-38h4.5v38H203.8z"/>
	<path d="M212.8,902.3v-53.3h18v7.6h-13.5v15.2h13.5v7.6h-13.5v15.2h13.5v7.6H212.8z"/>
	<path d="M235.2,871.9v-22.8h13.5v15.2h-4.5v-7.6h-4.5v15.2H235.2z M235.2,902.3v-15.2h4.5v7.6h4.5v-15.2h-4.5v-7.6h9v30.4H235.2z"
		/>
	<path d="M253.2,902.3v-53.3h4.5v53.3H253.2z"/>
	<path d="M266.8,902.3v-7.6h-4.5v-38h4.5v-7.6h13.5v7.6h-9v7.6h-4.5v22.8h4.5v7.6h9v7.6H266.8z M280.2,894.7v-15.2h-4.5v-7.6h9v22.8
		H280.2z M280.2,864.3v-7.6h4.5v7.6H280.2z"/>
	<path d="M289.2,902.3v-53.3h4.5v7.6h4.5v15.2h4.5v-22.8h4.5v53.3h-4.5v-7.6h-4.5v-15.2h-4.5v22.8H289.2z"/>
	<path d="M311.8,902.3v-53.3h18v7.6h-13.5v15.2h13.5v7.6h-13.5v15.2h13.5v7.6H311.8z"/>
	<path d="M334.2,902.3v-53.3h18v22.8h-4.5v-15.2h-9v15.2h9v22.8h-4.5v-15.2h-4.5v22.8H334.2z M347.8,902.3v-7.6h4.5v7.6H347.8z"/>
	<path d="M356.8,871.9v-22.8h13.5v15.2h-4.5v-7.6h-4.5v15.2H356.8z M356.8,902.3v-15.2h4.5v7.6h4.5v-15.2h-4.5v-7.6h9v30.4H356.8z"
		/>
	<path d="M374.8,917.5v-22.8h4.5v22.8H374.8z"/>
	<path d="M403,902.3v-53.3h9v38h-4.5v15.2H403z M412,902.3v-15.2h4.5v15.2H412z M421,902.3v-15.2h-4.5v-38h9v53.3H421z"/>
	<path d="M434.5,902.3v-7.6H430v-38h4.5v-7.6h18v7.6h4.5v38h-4.5v7.6H434.5z M448,894.7v-7.6h4.5v-22.8H448v-7.6h-9v7.6h-4.5v22.8
		h4.5v7.6H448z"/>
	<path d="M461.5,902.3v-53.3h18v7.6H466v38h13.5v7.6H461.5z M479.5,894.7v-38h4.5v38H479.5z"/>
	<path d="M488.5,902.3v-53.3h18v7.6H493v15.2h13.5v7.6H493v15.2h13.5v7.6H488.5z"/>
	<path d="M511,902.3v-53.3h4.5v45.7h9v7.6H511z"/>
	<path d="M529,871.9v-22.8h13.5v15.2H538v-7.6h-4.5v15.2H529z M529,902.3v-15.2h4.5v7.6h4.5v-15.2h-4.5v-7.6h9v30.4H529z"/>
	<path d="M547,917.5v-22.8h4.5v22.8H547z"/>
	<path d="M575.2,902.3v-53.3h18v7.6h-13.5v38h13.5v7.6H575.2z M593.2,894.7v-38h4.5v38H593.2z"/>
	<path d="M602.2,902.3v-15.2h4.5v15.2H602.2z M606.8,887.1v-30.4h4.5v22.8h4.5v-22.8h4.5v30.4H606.8z M611.2,856.7v-7.6h4.5v7.6
		H611.2z M620.2,902.3v-15.2h4.5v15.2H620.2z"/>
	<path d="M629.2,902.3v-53.3h4.5v7.6h4.5v15.2h4.5v-22.8h4.5v53.3h-4.5v-7.6h-4.5v-15.2h-4.5v22.8H629.2z"/>
	<path d="M656.2,902.3v-7.6h-4.5v-38h4.5v-7.6h18v7.6h-13.5v7.6h-4.5v22.8h4.5v7.6h13.5v7.6H656.2z M674.2,864.3v-7.6h4.5v7.6H674.2
		z M674.2,894.7v-7.6h4.5v7.6H674.2z"/>
	<path d="M683.2,902.3v-53.3h18v7.6h-13.5v15.2h13.5v7.6h-13.5v15.2h13.5v7.6H683.2z"/>
	<path d="M705.8,902.3v-53.3h18v22.8h-4.5v-15.2h-9v15.2h9v22.8h-4.5v-15.2h-4.5v22.8H705.8z M719.2,902.3v-7.6h4.5v7.6H719.2z"/>
	<path d="M728.2,871.9v-22.8h13.5v15.2h-4.5v-7.6h-4.5v15.2H728.2z M728.2,902.3v-15.2h4.5v7.6h4.5v-15.2h-4.5v-7.6h9v30.4H728.2z"
		/>
	<path d="M746.2,917.5v-22.8h4.5v22.8H746.2z"/>
	<path d="M774.5,902.3v-15.2h4.5v15.2H774.5z M779,887.1v-30.4h4.5v22.8h4.5v-22.8h4.5v30.4H779z M783.5,856.7v-7.6h4.5v7.6H783.5z
		 M792.5,902.3v-15.2h4.5v15.2H792.5z"/>
	<path d="M801.5,902.3v-53.3h4.5v7.6h4.5v15.2h4.5v-22.8h4.5v53.3H815v-7.6h-4.5v-15.2H806v22.8H801.5z"/>
	<path d="M824,902.3v-53.3h18v7.6h-13.5v38H842v7.6H824z M842,894.7v-38h4.5v38H842z"/>
	<path d="M0,954.7v-15.2h4.5v15.2H0z M4.5,939.5v-30.4H9v22.8h4.5v-22.8H18v30.4H4.5z M9,909.1v-7.6h4.5v7.6H9z M18,954.7v-15.2h4.5
		v15.2H18z"/>
	<path d="M27,954.7v-53.3h18v22.8h-4.5v-15.2h-9v15.2h9v22.8H36v-15.2h-4.5v22.8H27z M40.5,954.7v-7.6H45v7.6H40.5z"/>
	<path d="M58.5,954.7v-45.7h-9v-7.6H72v7.6h-9v45.7H58.5z"/>
	<path d="M76.5,954.7v-53.3H81v53.3H76.5z"/>
	<path d="M85.5,924.3v-22.8H99v15.2h-4.5v-7.6H90v15.2H85.5z M85.5,954.7v-15.2H90v7.6h4.5v-15.2H90v-7.6h9v30.4H85.5z"/>
	<path d="M112.5,954.7v-45.7h-9v-7.6H126v7.6h-9v45.7H112.5z"/>
	<path d="M130.5,924.3v-22.8H144v15.2h-4.5v-7.6H135v15.2H130.5z M130.5,954.7v-15.2h4.5v7.6h4.5v-15.2H135v-7.6h9v30.4H130.5z"/>
	<path d="M173.8,954.7v-53.3h18v7.6h-13.5v15.2h13.5v7.6h-13.5v15.2h13.5v7.6H173.8z M191.8,924.3v-15.2h4.5v15.2H191.8z
		 M191.8,947.1v-15.2h4.5v15.2H191.8z"/>
	<path d="M200.8,954.7v-53.3h18v22.8h-4.5v-15.2h-9v15.2h9v22.8h-4.5v-15.2h-4.5v22.8H200.8z M214.3,954.7v-7.6h4.5v7.6H214.3z"/>
	<path d="M223.3,954.7v-53.3h4.5v53.3H223.3z"/>
	<path d="M232.3,954.7v-53.3h4.5v7.6h4.5v15.2h4.5v-22.8h4.5v53.3h-4.5v-7.6h-4.5v-15.2h-4.5v22.8H232.3z"/>
	<path d="M259.3,954.7v-7.6h-4.5v-38h4.5v-7.6h13.5v7.6h-9v7.6h-4.5v22.8h4.5v7.6h9v7.6H259.3z M272.8,947.1v-15.2h-4.5v-7.6h9v22.8
		H272.8z M272.8,916.7v-7.6h4.5v7.6H272.8z"/>
	<path d="M316.1,954.7v-45.7h-9v-7.6h22.5v7.6h-9v45.7H316.1z"/>
	<path d="M334.1,954.7v-53.3h4.5v22.8h9v-22.8h4.5v53.3h-4.5v-22.8h-9v22.8H334.1z"/>
	<path d="M356.6,954.7v-53.3h18v7.6h-13.5v15.2h13.5v7.6h-13.5v15.2h13.5v7.6H356.6z"/>
	<path d="M379.1,954.7v-53.3h4.5v53.3H379.1z"/>
	<path d="M388.1,954.7v-53.3h18v22.8h-4.5v-15.2h-9v15.2h9v22.8h-4.5v-15.2h-4.5v22.8H388.1z M401.6,954.7v-7.6h4.5v7.6H401.6z"/>
	<path d="M435.9,924.3v-22.8h13.5v15.2h-4.5v-7.6h-4.5v15.2H435.9z M435.9,954.7v-15.2h4.5v7.6h4.5v-15.2h-4.5v-7.6h9v30.4H435.9z"
		/>
	<path d="M453.9,954.7v-53.3h4.5v22.8h4.5v-15.2h4.5v30.4h-4.5v-7.6h-4.5v22.8H453.9z M467.4,909.1v-7.6h4.5v7.6H467.4z
		 M467.4,954.7v-15.2h4.5v15.2H467.4z"/>
	<path d="M476.4,954.7v-53.3h4.5v53.3H476.4z"/>
	<path d="M485.4,954.7v-53.3h4.5v45.7h9v7.6H485.4z"/>
	<path d="M503.4,954.7v-53.3h4.5v45.7h9v7.6H503.4z"/>
	<path d="M521.4,924.3v-22.8h13.5v15.2h-4.5v-7.6h-4.5v15.2H521.4z M521.4,954.7v-15.2h4.5v7.6h4.5v-15.2h-4.5v-7.6h9v30.4H521.4z"
		/>
	<path d="M573.7,954.7v-45.7h-9v-7.6h22.5v7.6h-9v45.7H573.7z"/>
	<path d="M596.2,954.7v-7.6h-4.5v-38h4.5v-7.6h18v7.6h4.5v38h-4.5v7.6H596.2z M609.7,947.1v-7.6h4.5v-22.8h-4.5v-7.6h-9v7.6h-4.5
		v22.8h4.5v7.6H609.7z"/>
	<path d="M627.7,954.7v-7.6h-4.5v-38h4.5v-7.6h13.5v7.6h-9v7.6h-4.5v22.8h4.5v7.6h9v7.6H627.7z M641.2,947.1v-15.2h-4.5v-7.6h9v22.8
		H641.2z M641.2,916.7v-7.6h4.5v7.6H641.2z"/>
	<path d="M650.2,954.7v-53.3h18v7.6h-13.5v15.2h13.5v7.6h-13.5v15.2h13.5v7.6H650.2z"/>
	<path d="M681.7,954.7v-45.7h-9v-7.6h22.5v7.6h-9v45.7H681.7z"/>
	<path d="M699.7,954.7v-53.3h4.5v22.8h9v-22.8h4.5v53.3h-4.5v-22.8h-9v22.8H699.7z"/>
	<path d="M722.2,954.7v-53.3h18v7.6h-13.5v15.2h13.5v7.6h-13.5v15.2h13.5v7.6H722.2z"/>
	<path d="M744.7,954.7v-53.3h18v22.8h-4.5v-15.2h-9v15.2h9v22.8h-4.5v-15.2h-4.5v22.8H744.7z M758.2,954.7v-7.6h4.5v7.6H758.2z"/>
	<path d="M801.5,954.7v-45.7h-9v-7.6H815v7.6h-9v45.7H801.5z"/>
	<path d="M824,954.7v-7.6h-4.5v-38h4.5v-7.6h18v7.6h4.5v38H842v7.6H824z M837.5,947.1v-7.6h4.5v-22.8h-4.5v-7.6h-9v7.6H824v22.8h4.5
		v7.6H837.5z"/>
	<path d="M0,1007.2v-53.3h18v22.8h-4.5v-15.2h-9v15.2h9v7.6h-9v22.8H0z"/>
	<path d="M22.5,1007.2v-53.3h18v22.8H36v-15.2h-9v15.2h9v22.8h-4.5v-15.2H27v22.8H22.5z M36,1007.2v-7.6h4.5v7.6H36z"/>
	<path d="M49.5,1007.2v-7.6H45v-38h4.5v-7.6h18v7.6H72v38h-4.5v7.6H49.5z M63,999.6v-7.6h4.5v-22.8H63v-7.6h-9v7.6h-4.5v22.8H54v7.6
		H63z"/>
	<path d="M76.5,1007.2v-53.3h18v7.6H81v38h13.5v7.6H76.5z M94.5,999.6v-38H99v38H94.5z"/>
	<path d="M103.5,999.6v-45.7h4.5v45.7H103.5z M108,1007.2v-7.6h9v7.6H108z M117,999.6v-45.7h4.5v45.7H117z"/>
	<path d="M130.5,1007.2v-7.6H126v-38h4.5v-7.6h18v7.6H135v7.6h-4.5v22.8h4.5v7.6h13.5v7.6H130.5z M148.5,969.1v-7.6h4.5v7.6H148.5z
		 M148.5,999.6v-7.6h4.5v7.6H148.5z"/>
	<path d="M157.5,1007.2v-53.3h18v7.6H162v15.2h13.5v7.6H162v15.2h13.5v7.6H157.5z"/>
	<path d="M204.9,1007.2v-53.3h4.5v45.7h9v7.6H204.9z"/>
	<path d="M222.9,999.6v-45.7h4.5v45.7H222.9z M227.4,1007.2v-7.6h9v7.6H227.4z M236.4,999.6v-45.7h4.5v45.7H236.4z"/>
	<path d="M245.4,1007.2v-53.3h4.5v7.6h4.5v15.2h4.5v-22.8h4.5v53.3h-4.5v-7.6h-4.5v-15.2h-4.5v22.8H245.4z"/>
	<path d="M267.9,1007.2v-15.2h4.5v15.2H267.9z M272.4,991.9v-30.4h4.5v22.8h4.5v-22.8h4.5v30.4H272.4z M276.9,961.5v-7.6h4.5v7.6
		H276.9z M285.9,1007.2v-15.2h4.5v15.2H285.9z"/>
	<path d="M294.9,1007.2v-53.3h18v22.8h-4.5v-15.2h-9v15.2h9v22.8h-4.5v-15.2h-4.5v22.8H294.9z M308.4,1007.2v-7.6h4.5v7.6H308.4z"/>
	<path d="M346.8,1007.2v-7.6h-4.5v-38h4.5v-7.6h13.5v7.6h-9v7.6h-4.5v22.8h4.5v7.6h9v7.6H346.8z M360.2,999.6v-15.2h-4.5v-7.6h9
		v22.8H360.2z M360.2,969.1v-7.6h4.5v7.6H360.2z"/>
	<path d="M369.2,1007.2v-15.2h4.5v15.2H369.2z M373.8,991.9v-30.4h4.5v22.8h4.5v-22.8h4.5v30.4H373.8z M378.2,961.5v-7.6h4.5v7.6
		H378.2z M387.2,1007.2v-15.2h4.5v15.2H387.2z"/>
	<path d="M396.2,1007.2v-53.3h4.5v45.7h9v7.6H396.2z"/>
	<path d="M414.2,1007.2v-15.2h4.5v15.2H414.2z M418.8,991.9v-30.4h4.5v22.8h4.5v-22.8h4.5v30.4H418.8z M423.2,961.5v-7.6h4.5v7.6
		H423.2z M432.2,1007.2v-15.2h4.5v15.2H432.2z"/>
	<path d="M441.2,1022.4v-22.8h4.5v22.8H441.2z"/>
	<path d="M479.6,1007.2v-7.6h-4.5v-38h4.5v-7.6h18v7.6h-13.5v7.6h-4.5v22.8h4.5v7.6h13.5v7.6H479.6z M497.6,969.1v-7.6h4.5v7.6
		H497.6z M497.6,999.6v-7.6h4.5v7.6H497.6z"/>
	<path d="M506.6,1007.2v-15.2h4.5v15.2H506.6z M511.1,991.9v-30.4h4.5v22.8h4.5v-22.8h4.5v30.4H511.1z M515.6,961.5v-7.6h4.5v7.6
		H515.6z M524.6,1007.2v-15.2h4.5v15.2H524.6z"/>
	<path d="M533.6,1007.2v-53.3h18v22.8h-4.5v-15.2h-9v15.2h9v22.8h-4.5v-15.2h-4.5v22.8H533.6z M547.1,1007.2v-7.6h4.5v7.6H547.1z"/>
	<path d="M556.1,1007.2v-53.3h4.5v7.6h4.5v15.2h4.5v-22.8h4.5v53.3h-4.5v-7.6h-4.5v-15.2h-4.5v22.8H556.1z"/>
	<path d="M578.6,1007.2v-53.3h18v7.6h-13.5v15.2h13.5v7.6h-13.5v15.2h13.5v7.6H578.6z"/>
	<path d="M605.6,1007.2v-7.6h-4.5v-38h4.5v-7.6h13.5v7.6h-9v7.6h-4.5v22.8h4.5v7.6h9v7.6H605.6z M619.1,999.6v-15.2h-4.5v-7.6h9
		v22.8H619.1z M619.1,969.1v-7.6h4.5v7.6H619.1z"/>
	<path d="M628.1,1007.2v-53.3h4.5v53.3H628.1z"/>
	<path d="M637.1,1007.2v-53.3h18v7.6h-13.5v15.2h13.5v7.6h-13.5v15.2h13.5v7.6H637.1z"/>
	<path d="M684.5,1007.2v-53.3h9v38H689v15.2H684.5z M693.5,1007.2v-15.2h4.5v15.2H693.5z M702.5,1007.2v-15.2H698v-38h9v53.3H702.5z
		"/>
	<path d="M711.5,1007.2v-53.3h18v7.6H716v15.2h13.5v7.6H716v15.2h13.5v7.6H711.5z"/>
	<path d="M734,1007.2v-53.3h4.5v45.7h9v7.6H734z"/>
	<path d="M752,1007.2v-53.3h4.5v45.7h9v7.6H752z"/>
	<path d="M774.5,1007.2v-7.6H770v-38h4.5v-7.6h18v7.6h4.5v38h-4.5v7.6H774.5z M788,999.6v-7.6h4.5v-22.8H788v-7.6h-9v7.6h-4.5v22.8
		h4.5v7.6H788z"/>
	<path d="M801.5,1007.2v-53.3h4.5v7.6h4.5v15.2h4.5v-22.8h4.5v53.3H815v-7.6h-4.5v-15.2H806v22.8H801.5z"/>
	<path d="M824,976.7v-22.8h4.5v22.8H824z"/>
	<path d="M833,976.7v-22.8h13.5v15.2H842v-7.6h-4.5v15.2H833z M833,1007.2v-15.2h4.5v7.6h4.5v-15.2h-4.5v-7.6h9v30.4H833z"/>
	<path d="M0,1059.6v-53.3h4.5v45.7h9v7.6H0z"/>
	<path d="M18,1059.6v-15.2h4.5v15.2H18z M22.5,1044.4v-30.4H27v22.8h4.5v-22.8H36v30.4H22.5z M27,1013.9v-7.6h4.5v7.6H27z
		 M36,1059.6v-15.2h4.5v15.2H36z"/>
	<path d="M45,1059.6v-53.3h18v22.8h-4.5v-15.2h-9v15.2h9v22.8H54v-15.2h-4.5v22.8H45z M58.5,1059.6v-7.6H63v7.6H58.5z"/>
	<path d="M72,1059.6v-7.6h-4.5v-38H72v-7.6h13.5v7.6h-9v7.6H72v22.8h4.5v7.6h9v7.6H72z M85.5,1052v-15.2H81v-7.6h9v22.8H85.5z
		 M85.5,1021.5v-7.6H90v7.6H85.5z"/>
	<path d="M94.5,1059.6v-53.3h18v7.6H99v15.2h13.5v7.6H99v15.2h13.5v7.6H94.5z"/>
	<path d="M117,1029.2v-22.8h13.5v15.2H126v-7.6h-4.5v15.2H117z M117,1059.6v-15.2h4.5v7.6h4.5v-15.2h-4.5v-7.6h9v30.4H117z"/>
	<path d="M144,1059.6v-45.7h-9v-7.6h22.5v7.6h-9v45.7H144z"/>
	<path d="M179.2,1059.6v-15.2h4.5v15.2H179.2z M183.7,1044.4v-30.4h4.5v22.8h4.5v-22.8h4.5v30.4H183.7z M188.2,1013.9v-7.6h4.5v7.6
		H188.2z M197.2,1059.6v-15.2h4.5v15.2H197.2z"/>
	<path d="M206.2,1059.6v-53.3h4.5v7.6h4.5v15.2h4.5v-22.8h4.5v53.3h-4.5v-7.6h-4.5v-15.2h-4.5v22.8H206.2z"/>
	<path d="M228.7,1059.6v-53.3h4.5v7.6h4.5v15.2h4.5v-22.8h4.5v53.3h-4.5v-7.6h-4.5v-15.2h-4.5v22.8H228.7z"/>
	<path d="M251.2,1052v-45.7h4.5v45.7H251.2z M255.7,1059.6v-7.6h9v7.6H255.7z M264.7,1052v-45.7h4.5v45.7H264.7z"/>
	<path d="M273.7,1059.6v-15.2h4.5v15.2H273.7z M278.2,1044.4v-30.4h4.5v22.8h4.5v-22.8h4.5v30.4H278.2z M282.7,1013.9v-7.6h4.5v7.6
		H282.7z M291.7,1059.6v-15.2h4.5v15.2H291.7z"/>
	<path d="M300.7,1059.6v-53.3h4.5v45.7h9v7.6H300.7z"/>
	<path d="M335.9,1029.2v-22.8h13.5v15.2h-4.5v-7.6h-4.5v15.2H335.9z M335.9,1059.6v-15.2h4.5v7.6h4.5v-15.2h-4.5v-7.6h9v30.4H335.9z
		"/>
	<path d="M353.9,1059.6v-53.3h4.5v22.8h9v-22.8h4.5v53.3h-4.5v-22.8h-9v22.8H353.9z"/>
	<path d="M380.9,1059.6v-7.6h-4.5v-38h4.5v-7.6h18v7.6h4.5v38h-4.5v7.6H380.9z M394.4,1052v-7.6h4.5v-22.8h-4.5v-7.6h-9v7.6h-4.5
		v22.8h4.5v7.6H394.4z"/>
	<path d="M407.9,1021.5v-15.2h4.5v15.2H407.9z M412.4,1044.4v-22.8h4.5v22.8H412.4z M416.9,1059.6v-15.2h4.5v15.2H416.9z
		 M421.4,1044.4v-22.8h4.5v22.8H421.4z M425.9,1021.5v-15.2h4.5v15.2H425.9z M430.4,1044.4v-22.8h4.5v22.8H430.4z M434.9,1059.6
		v-15.2h4.5v15.2H434.9z M439.4,1044.4v-22.8h4.5v22.8H439.4z M443.9,1021.5v-15.2h4.5v15.2H443.9z"/>
	<path d="M452.9,1059.6v-7.6h4.5v7.6H452.9z"/>
	<path d="M479.1,1059.6v-53.3h4.5v45.7h9v7.6H479.1z"/>
	<path d="M497.1,1052v-45.7h4.5v45.7H497.1z M501.6,1059.6v-7.6h9v7.6H501.6z M510.6,1052v-45.7h4.5v45.7H510.6z"/>
	<path d="M519.6,1059.6v-53.3h4.5v7.6h4.5v15.2h4.5v-22.8h4.5v53.3h-4.5v-7.6h-4.5v-15.2h-4.5v22.8H519.6z"/>
	<path d="M542.1,1059.6v-15.2h4.5v15.2H542.1z M546.6,1044.4v-30.4h4.5v22.8h4.5v-22.8h4.5v30.4H546.6z M551.1,1013.9v-7.6h4.5v7.6
		H551.1z M560.1,1059.6v-15.2h4.5v15.2H560.1z"/>
	<path d="M569.1,1059.6v-53.3h18v22.8h-4.5v-15.2h-9v15.2h9v22.8h-4.5v-15.2h-4.5v22.8H569.1z M582.6,1059.6v-7.6h4.5v7.6H582.6z"/>
	<path d="M613.3,1059.6v-7.6h-4.5v-38h4.5v-7.6h13.5v7.6h-9v7.6h-4.5v22.8h4.5v7.6h9v7.6H613.3z M626.8,1052v-15.2h-4.5v-7.6h9v22.8
		H626.8z M626.8,1021.5v-7.6h4.5v7.6H626.8z"/>
	<path d="M635.8,1059.6v-15.2h4.5v15.2H635.8z M640.3,1044.4v-30.4h4.5v22.8h4.5v-22.8h4.5v30.4H640.3z M644.8,1013.9v-7.6h4.5v7.6
		H644.8z M653.8,1059.6v-15.2h4.5v15.2H653.8z"/>
	<path d="M662.8,1059.6v-53.3h4.5v45.7h9v7.6H662.8z"/>
	<path d="M680.8,1059.6v-15.2h4.5v15.2H680.8z M685.3,1044.4v-30.4h4.5v22.8h4.5v-22.8h4.5v30.4H685.3z M689.8,1013.9v-7.6h4.5v7.6
		H689.8z M698.8,1059.6v-15.2h4.5v15.2H698.8z"/>
	<path d="M725,1059.6v-53.3h18v7.6h-13.5v15.2H743v7.6h-13.5v15.2H743v7.6H725z M743,1029.2v-15.2h4.5v15.2H743z M743,1052v-15.2
		h4.5v15.2H743z"/>
	<path d="M752,1059.6v-53.3h18v22.8h-4.5v-15.2h-9v15.2h9v22.8H761v-15.2h-4.5v22.8H752z M765.5,1059.6v-7.6h4.5v7.6H765.5z"/>
	<path d="M774.5,1059.6v-53.3h4.5v53.3H774.5z"/>
	<path d="M783.5,1059.6v-53.3h4.5v7.6h4.5v15.2h4.5v-22.8h4.5v53.3H797v-7.6h-4.5v-15.2H788v22.8H783.5z"/>
	<path d="M810.5,1059.6v-7.6H806v-38h4.5v-7.6H824v7.6h-9v7.6h-4.5v22.8h4.5v7.6h9v7.6H810.5z M824,1052v-15.2h-4.5v-7.6h9v22.8H824
		z M824,1021.5v-7.6h4.5v7.6H824z"/>
	<path d="M833,1029.2v-22.8h13.5v15.2H842v-7.6h-4.5v15.2H833z M833,1059.6v-15.2h4.5v7.6h4.5v-15.2h-4.5v-7.6h9v30.4H833z"/>
	<path d="M9,1112v-45.7H0v-7.6h22.5v7.6h-9v45.7H9z"/>
	<path d="M31.5,1112v-7.6H27v-38h4.5v-7.6h18v7.6H54v38h-4.5v7.6H31.5z M45,1104.4v-7.6h4.5V1074H45v-7.6h-9v7.6h-4.5v22.8H36v7.6
		H45z"/>
	<path d="M63,1112v-7.6h-4.5v-38H63v-7.6h13.5v7.6h-9v7.6H63v22.8h4.5v7.6h9v7.6H63z M76.5,1104.4v-15.2H72v-7.6h9v22.8H76.5z
		 M76.5,1074v-7.6H81v7.6H76.5z"/>
	<path d="M85.5,1112v-53.3h18v7.6H90v15.2h13.5v7.6H90v15.2h13.5v7.6H85.5z"/>
	<path d="M117,1112v-45.7h-9v-7.6h22.5v7.6h-9v45.7H117z"/>
	<path d="M135,1112v-53.3h4.5v22.8h9v-22.8h4.5v53.3h-4.5v-22.8h-9v22.8H135z"/>
	<path d="M157.5,1112v-53.3h18v7.6H162v15.2h13.5v7.6H162v15.2h13.5v7.6H157.5z"/>
	<path d="M180,1112v-53.3h18v22.8h-4.5v-15.2h-9v15.2h9v22.8H189v-15.2h-4.5v22.8H180z M193.5,1112v-7.6h4.5v7.6H193.5z"/>
	<path d="M209.8,1112v-53.3h18v7.6h-13.5v15.2h13.5v7.6h-13.5v22.8H209.8z"/>
	<path d="M232.3,1112v-15.2h4.5v15.2H232.3z M236.8,1096.8v-30.4h4.5v22.8h4.5v-22.8h4.5v30.4H236.8z M241.3,1066.4v-7.6h4.5v7.6
		H241.3z M250.3,1112v-15.2h4.5v15.2H250.3z"/>
	<path d="M259.3,1081.6v-22.8h13.5v15.2h-4.5v-7.6h-4.5v15.2H259.3z M259.3,1112v-15.2h4.5v7.6h4.5v-15.2h-4.5v-7.6h9v30.4H259.3z"
		/>
	<path d="M277.3,1112v-53.3h4.5v22.8h9v-22.8h4.5v53.3h-4.5v-22.8h-9v22.8H277.3z"/>
	<path d="M299.8,1112v-53.3h4.5v53.3H299.8z"/>
	<path d="M313.3,1112v-7.6h-4.5v-38h4.5v-7.6h18v7.6h4.5v38h-4.5v7.6H313.3z M326.8,1104.4v-7.6h4.5V1074h-4.5v-7.6h-9v7.6h-4.5
		v22.8h4.5v7.6H326.8z"/>
	<path d="M340.3,1112v-53.3h4.5v7.6h4.5v15.2h4.5v-22.8h4.5v53.3h-4.5v-7.6h-4.5v-15.2h-4.5v22.8H340.3z"/>
	<path d="M370.1,1112v-53.3h18v7.6h-13.5v38h13.5v7.6H370.1z M388.1,1104.4v-38h4.5v38H388.1z"/>
	<path d="M397.1,1112v-53.3h18v7.6h-13.5v15.2h13.5v7.6h-13.5v15.2h13.5v7.6H397.1z"/>
	<path d="M419.6,1081.6v-22.8h13.5v15.2h-4.5v-7.6h-4.5v15.2H419.6z M419.6,1112v-15.2h4.5v7.6h4.5v-15.2h-4.5v-7.6h9v30.4H419.6z"
		/>
	<path d="M437.6,1112v-53.3h4.5v53.3H437.6z"/>
	<path d="M451.1,1112v-7.6h-4.5v-38h4.5v-7.6h13.5v7.6h-9v7.6h-4.5v22.8h4.5v7.6h9v7.6H451.1z M464.6,1104.4v-15.2h-4.5v-7.6h9v22.8
		H464.6z M464.6,1074v-7.6h4.5v7.6H464.6z"/>
	<path d="M473.6,1112v-53.3h4.5v7.6h4.5v15.2h4.5v-22.8h4.5v53.3h-4.5v-7.6h-4.5v-15.2h-4.5v22.8H473.6z"/>
	<path d="M496.1,1127.2v-22.8h4.5v22.8H496.1z"/>
	<path d="M512.4,1112v-53.3h18v7.6h-13.5v38h13.5v7.6H512.4z M530.4,1104.4v-38h4.5v38H530.4z"/>
	<path d="M539.4,1112v-15.2h4.5v15.2H539.4z M543.9,1096.8v-30.4h4.5v22.8h4.5v-22.8h4.5v30.4H543.9z M548.4,1066.4v-7.6h4.5v7.6
		H548.4z M557.4,1112v-15.2h4.5v15.2H557.4z"/>
	<path d="M566.4,1112v-53.3h4.5v7.6h4.5v15.2h4.5v-22.8h4.5v53.3h-4.5v-7.6h-4.5v-15.2h-4.5v22.8H566.4z"/>
	<path d="M593.4,1112v-7.6h-4.5v-38h4.5v-7.6h18v7.6h-13.5v7.6h-4.5v22.8h4.5v7.6h13.5v7.6H593.4z M611.4,1074v-7.6h4.5v7.6H611.4z
		 M611.4,1104.4v-7.6h4.5v7.6H611.4z"/>
	<path d="M620.4,1112v-53.3h18v7.6h-13.5v15.2h13.5v7.6h-13.5v15.2h13.5v7.6H620.4z"/>
	<path d="M650.2,1112v-15.2h4.5v15.2H650.2z M654.7,1096.8v-30.4h4.5v22.8h4.5v-22.8h4.5v30.4H654.7z M659.2,1066.4v-7.6h4.5v7.6
		H659.2z M668.2,1112v-15.2h4.5v15.2H668.2z"/>
	<path d="M677.2,1112v-53.3h4.5v7.6h4.5v15.2h4.5v-22.8h4.5v53.3h-4.5v-7.6h-4.5v-15.2h-4.5v22.8H677.2z"/>
	<path d="M699.7,1112v-53.3h18v7.6h-13.5v38h13.5v7.6H699.7z M717.7,1104.4v-38h4.5v38H717.7z"/>
	<path d="M734,1074v-15.2h4.5v15.2H734z M738.5,1096.8V1074h4.5v22.8H738.5z M743,1112v-15.2h4.5v15.2H743z M747.5,1096.8V1074h4.5
		v22.8H747.5z M752,1074v-15.2h4.5v15.2H752z"/>
	<path d="M761,1112v-53.3h4.5v53.3H761z"/>
	<path d="M770,1112v-53.3h18v7.6h-13.5v38H788v7.6H770z M788,1104.4v-38h4.5v38H788z"/>
	<path d="M797,1112v-53.3h18v7.6h-13.5v15.2H815v7.6h-13.5v15.2H815v7.6H797z"/>
	<path d="M824,1112v-7.6h-4.5v-38h4.5v-7.6h18v7.6h4.5v38H842v7.6H824z M837.5,1104.4v-7.6h4.5V1074h-4.5v-7.6h-9v7.6H824v22.8h4.5
		v7.6H837.5z"/>
	<path d="M0,1164.4v-15.2h4.5v15.2H0z M4.5,1149.2v-30.4H9v22.8h4.5v-22.8H18v30.4H4.5z M9,1118.8v-7.6h4.5v7.6H9z M18,1164.4v-15.2
		h4.5v15.2H18z"/>
	<path d="M27,1164.4v-53.3h18v22.8h-4.5v-15.2h-9v15.2h9v22.8H36v-15.2h-4.5v22.8H27z M40.5,1164.4v-7.6H45v7.6H40.5z"/>
	<path d="M58.5,1164.4v-45.7h-9v-7.6H72v7.6h-9v45.7H58.5z"/>
	<path d="M127,1164.4v-53.3h4.5v53.3H127z"/>
	<path d="M136,1164.4v-53.3h4.5v7.6h4.5v15.2h4.5v-22.8h4.5v53.3h-4.5v-7.6H145v-15.2h-4.5v22.8H136z"/>
	<path d="M209,1164.4v-15.2h4.5v15.2H209z M213.5,1149.2v-30.4h4.5v22.8h4.5v-22.8h4.5v30.4H213.5z M218,1118.8v-7.6h4.5v7.6H218z
		 M227,1164.4v-15.2h4.5v15.2H227z"/>
	<path d="M286.5,1156.8v-45.7h4.5v45.7H286.5z M291,1164.4v-7.6h9v7.6H291z M300,1156.8v-45.7h4.5v45.7H300z"/>
	<path d="M309,1164.4v-53.3h4.5v7.6h4.5v15.2h4.5v-22.8h4.5v53.3h-4.5v-7.6H318v-15.2h-4.5v22.8H309z"/>
	<path d="M331.5,1164.4v-53.3h4.5v53.3H331.5z"/>
	<path d="M345,1164.4v-7.6h-4.5v-38h4.5v-7.6h18v7.6h4.5v38H363v7.6H345z M354,1156.8v-15.2h4.5v7.6h4.5v-22.8h-4.5v-7.6h-9v7.6H345
		v22.8h4.5v7.6H354z M363,1172.1v-7.6h4.5v7.6H363z"/>
	<path d="M372,1156.8v-45.7h4.5v45.7H372z M376.5,1164.4v-7.6h9v7.6H376.5z M385.5,1156.8v-45.7h4.5v45.7H385.5z"/>
	<path d="M394.5,1164.4v-53.3h18v7.6H399v15.2h13.5v7.6H399v15.2h13.5v7.6H394.5z"/>
	<path d="M472,1164.4v-7.6h-4.5v-38h4.5v-7.6h18v7.6h4.5v38H490v7.6H472z M485.5,1156.8v-7.6h4.5v-22.8h-4.5v-7.6h-9v7.6H472v22.8
		h4.5v7.6H485.5z"/>
	<path d="M499,1164.4v-53.3h4.5v7.6h4.5v15.2h4.5v-22.8h4.5v53.3h-4.5v-7.6H508v-15.2h-4.5v22.8H499z"/>
	<path d="M521.5,1164.4v-53.3h18v7.6H526v15.2h13.5v7.6H526v15.2h13.5v7.6H521.5z"/>
	<path d="M544,1149.2v-7.6h13.5v7.6H544z"/>
	<path d="M562,1164.4v-53.3h4.5v7.6h4.5v15.2h4.5v-22.8h4.5v53.3h-4.5v-7.6H571v-15.2h-4.5v22.8H562z"/>
	<path d="M584.5,1164.4v-53.3h4.5v53.3H584.5z"/>
	<path d="M598,1164.4v-7.6h-4.5v-38h4.5v-7.6h13.5v7.6h-9v7.6H598v22.8h4.5v7.6h9v7.6H598z M611.5,1156.8v-15.2H607v-7.6h9v22.8
		H611.5z M611.5,1126.4v-7.6h4.5v7.6H611.5z"/>
	<path d="M620.5,1164.4v-53.3h4.5v22.8h9v-22.8h4.5v53.3H634v-22.8h-9v22.8H620.5z"/>
	<path d="M652,1164.4v-45.7h-9v-7.6h22.5v7.6h-9v45.7H652z"/>
	<path d="M720.5,1164.4v-53.3h18v7.6H725v15.2h13.5v7.6H725v15.2h13.5v7.6H720.5z"/>
	<path d="M743,1126.4v-15.2h4.5v15.2H743z M747.5,1149.2v-22.8h4.5v22.8H747.5z M752,1164.4v-15.2h4.5v15.2H752z M756.5,1149.2
		v-22.8h4.5v22.8H756.5z M761,1126.4v-15.2h4.5v15.2H761z"/>
	<path d="M770,1164.4v-53.3h18v7.6h-13.5v15.2H788v7.6h-13.5v15.2H788v7.6H770z"/>
	<path d="M792.5,1164.4v-53.3h4.5v7.6h4.5v15.2h4.5v-22.8h4.5v53.3H806v-7.6h-4.5v-15.2H797v22.8H792.5z"/>
	<path d="M824,1164.4v-45.7h-9v-7.6h22.5v7.6h-9v45.7H824z"/>
	<path d="M842,1164.4v-7.6h4.5v7.6H842z"/>
</g>
</svg>
