<?xml version="1.0" encoding="utf-8"?>
<!-- Generator: Adobe Illustrator 18.1.1, SVG Export Plug-In . SVG Version: 6.00 Build 0)  -->
<!DOCTYPE svg PUBLIC "-//W3C//DTD SVG 1.1//EN" "http://www.w3.org/Graphics/SVG/1.1/DTD/svg11.dtd">
<svg version="1.1" id="Layer_1" xmlns="http://www.w3.org/2000/svg" xmlns:xlink="http://www.w3.org/1999/xlink" x1="0%" x2="100%" y1="0%" y2="100%"
    viewBox="0 0 212.5 62.5" enable-background="new 0 0 212.5 62.5" xml:space="preserve">
<g>
	<path d="M0,62.5v-25h6.2v25H0z M6.2,37.5V0H25v6.2H12.5v25h6.2V25H25v12.5H6.2z M25,25V6.2h6.2V25H25z"/>
	<path d="M37.5,62.5v-25h6.2v18.8h18.8v6.2H37.5z M43.8,37.5V0h25v6.2H50V25h18.8v6.2H50v6.3H43.8z"/>
	<path d="M75,62.5v-50h6.2v43.8h12.5v6.2H75z M81.2,12.5V0H100v12.5h-6.2V6.2h-6.2v6.2H81.2z M93.8,56.2V37.5h6.2v18.8H93.8z
		 M100,37.5v-25h6.2v25H100z"/>
	<path d="M112.5,62.5v-25h6.2v25H112.5z M118.8,37.5V0h18.8v6.2H125v25h6.2V25h6.2v12.5H118.8z M137.5,25V6.2h6.2V25H137.5z"/>
	<path d="M150,62.5v-25h6.2v18.8H175v6.2H150z M156.2,37.5V0h6.2v37.5H156.2z"/>
	<path d="M181.2,62.5v-25h6.2v18.8h18.8v6.2H181.2z M187.5,37.5V0h25v6.2h-18.8V25h18.8v6.2h-18.8v6.3H187.5z"/>
</g>
</svg>
