<?xml version="1.0" encoding="utf-8"?>
<!-- Generator: Adobe Illustrator 18.1.1, SVG Export Plug-In . SVG Version: 6.00 Build 0)  -->
<!DOCTYPE svg PUBLIC "-//W3C//DTD SVG 1.1//EN" "http://www.w3.org/Graphics/SVG/1.1/DTD/svg11.dtd">
<svg version="1.1" id="Layer_1" xmlns="http://www.w3.org/2000/svg" xmlns:xlink="http://www.w3.org/1999/xlink" x="0px" y="0px"
	 viewBox="0 399 851 315" enable-background="new 0 399 851 315" xml:space="preserve">
<g>
	<path d="M0,315v-37.9h2.9v-101h2.9v-101h2.9V-0.5h5.7v63.1h2.9v101H20v101h2.9V315h-5.7v-88.4H5.7V315H0z M14.3,201.4v-101h-2.9
		V87.8H8.6v113.6H14.3z"/>
	<path d="M25.7,315V-0.5h5.7v37.9h2.9v50.5h2.9v37.9H40v50.5h2.9v50.5h2.9V-0.5h2.9V315h-2.9v-12.6h-2.9v-50.5H40v-50.5h-2.9v-37.9
		h-2.9v-50.5h-2.9V75.2h-2.9V315H25.7z"/>
	<path d="M60,315V-0.5h17.1v25.2H62.8v126.2h11.4v25.2H62.8v113.6h14.3V315H60z"/>
	<path d="M80,315v-25.2h2.9v-50.5h2.9v-50.5h2.9v-75.7h-2.9V62.6h-2.9V12.1H80V-0.5h5.7v25.2h2.9v63.1h5.7V37.3h2.9V-0.5h5.7v12.6
		H100v37.9h-2.9v63.1h-2.9v63.1h2.9v63.1h2.9v50.5h2.9V315h-5.7v-50.5h-2.9V214h-2.9v-12.6h-2.9v50.5h-2.9V315H80z"/>
	<path d="M105.7,315V-0.5h2.9v138.8h14.3V-0.5h2.9V315h-2.9V163.5h-14.3V315H105.7z"/>
	<path d="M128.5,315V-0.5h2.9V315H128.5z"/>
	<path d="M134.3,315V-0.5h14.3v12.6h5.7v113.6h-2.9v50.5h2.9v101h-2.9v25.2h-2.9V315H134.3z M148.5,138.3v-25.2h2.9V37.3h-2.9V24.7
		h-11.4v113.6H148.5z M148.5,289.8v-25.2h2.9v-75.7h-2.9v-25.2h-11.4v126.2H148.5z"/>
	<path d="M157.1,315V-0.5h2.9V315H157.1z"/>
	<path d="M171.4,315V24.7h-8.6V-0.5h20v25.2h-8.6V315H171.4z"/>
	<path d="M185.7,315V-0.5h2.9V315H185.7z"/>
	<path d="M191.4,239.3V75.2h2.9v164.1H191.4z M194.2,75.2V24.7h2.9V12.1h2.9V-0.5h5.7v12.6h2.9v12.6h2.9v50.5h-2.9V37.3h-2.9V24.7
		H200v12.6h-2.9v37.9H194.2z M200,315v-12.6h-2.9v-12.6h-2.9v-50.5h2.9v37.9h2.9v12.6h5.7v-12.6h2.9v-37.9h2.9v50.5h-2.9v12.6h-2.9
		V315H200z M211.4,239.3V75.2h2.9v164.1H211.4z"/>
	<path d="M217.1,315V-0.5h5.7v37.9h2.9v50.5h2.9v37.9h2.9v50.5h2.9v50.5h2.9V-0.5h2.9V315h-2.9v-12.6h-2.9v-50.5h-2.9v-50.5h-2.9
		v-37.9h-2.9v-50.5h-2.9V75.2H220V315H217.1z"/>
	<path d="M251.4,239.3V75.2h2.9v164.1H251.4z M254.2,75.2V24.7h2.9V12.1h2.9V-0.5h5.7v12.6h2.9v12.6h2.9v50.5h-2.9V37.3h-2.9V24.7
		H260v12.6h-2.9v37.9H254.2z M260,315v-12.6h-2.9v-12.6h-2.9v-50.5h2.9v37.9h2.9v12.6h5.7v-12.6h2.9v-37.9h2.9v50.5h-2.9v12.6h-2.9
		V315H260z M271.4,239.3V75.2h2.9v164.1H271.4z"/>
	<path d="M277.1,315V-0.5h17.1v25.2h-14.3v126.2h11.4v25.2h-11.4V315H277.1z"/>
	<path d="M322.8,277.1v-75.7h-2.9v-12.6h-2.9v-12.6h-2.9v-12.6h-2.9v-12.6h-2.9v-25.2h-2.9V37.3h2.9v63.1h2.9v12.6h2.9v12.6h2.9
		v12.6h2.9v12.6h2.9v37.9h2.9v88.4H322.8z M311.4,315v-12.6h-2.9v-12.6h-2.9v-63.1h2.9v50.5h2.9v12.6h8.6v-12.6h2.9v25.2h-2.9V315
		H311.4z M319.9,62.6V37.3h-2.9V24.7h-5.7v12.6h-2.9V12.1h2.9V-0.5h5.7v12.6h5.7v50.5H319.9z M322.8,75.2V62.6h2.9v12.6H322.8z"/>
	<path d="M337.1,315V24.7h-8.6V-0.5h20v25.2h-8.6V315H337.1z"/>
	<path d="M351.4,315V-0.5h2.9V315H351.4z"/>
	<path d="M357.1,315V-0.5h5.7v50.5h2.9v75.7h2.9v75.7h2.9V214h2.9v-75.7h2.9V62.6h2.9V-0.5h5.7V315h-2.9V87.8h-2.9v75.7h-2.9v75.7
		h-2.9V315h-5.7v-75.7h-2.9v-75.7h-2.9V87.8h-2.9V315H357.1z"/>
	<path d="M397.1,315v-12.6h-5.7v-25.2h-2.9V-0.5h2.9v265.1h2.9v25.2h8.6v-25.2h2.9V-0.5h2.9v277.7h-2.9v25.2h-5.7V315H397.1z"/>
	<path d="M411.4,315V-0.5h2.9v290.3h11.4V315H411.4z"/>
	<path d="M428.5,315v-37.9h2.9v-101h2.9v-101h2.9V-0.5h5.7v63.1h2.9v101h2.9v101h2.9V315h-5.7v-88.4h-11.4V315H428.5z M442.8,201.4
		v-101h-2.9V87.8h-2.9v113.6H442.8z"/>
	<path d="M462.8,315V24.7h-8.6V-0.5h20v25.2h-8.6V315H462.8z"/>
	<path d="M477.1,315V-0.5h2.9V315H477.1z"/>
	<path d="M482.8,239.3V75.2h2.9v164.1H482.8z M485.6,75.2V24.7h2.9V12.1h2.9V-0.5h5.7v12.6h2.9v12.6h2.9v50.5h-2.9V37.3h-2.9V24.7
		h-5.7v12.6h-2.9v37.9H485.6z M491.3,315v-12.6h-2.9v-12.6h-2.9v-50.5h2.9v37.9h2.9v12.6h5.7v-12.6h2.9v-37.9h2.9v50.5h-2.9v12.6
		h-2.9V315H491.3z M502.8,239.3V75.2h2.9v164.1H502.8z"/>
	<path d="M508.5,315V-0.5h5.7v37.9h2.9v50.5h2.9v37.9h2.9v50.5h2.9v50.5h2.9V-0.5h2.9V315h-2.9v-12.6h-2.9v-50.5h-2.9v-50.5h-2.9
		v-37.9H517v-50.5h-2.9V75.2h-2.9V315H508.5z"/>
	<path d="M542.8,315v-37.9h2.9v-101h2.9v-101h2.9V-0.5h5.7v63.1h2.9v101h2.9v101h2.9V315h-5.7v-88.4h-11.4V315H542.8z M557,201.4
		v-101h-2.9V87.8h-2.9v113.6H557z"/>
	<path d="M568.5,315V-0.5h5.7v37.9h2.9v50.5h2.9v37.9h2.9v50.5h2.9v50.5h2.9V-0.5h2.9V315h-2.9v-12.6h-2.9v-50.5h-2.9v-50.5h-2.9
		v-37.9H577v-50.5h-2.9V75.2h-2.9V315H568.5z"/>
	<path d="M594.2,315V-0.5h11.4v12.6h2.9v12.6h2.9v12.6h2.9v50.5h-2.9V49.9h-2.9V37.3h-2.9V24.7H597v265.1h8.6v-12.6h2.9v-12.6h2.9
		v-37.9h2.9v50.5h-2.9v12.6h-2.9v12.6h-2.9V315H594.2z M614.2,226.6V87.8h2.9v138.8H614.2z"/>
	<path d="M645.6,277.1v-75.7h-2.9v-12.6h-2.9v-12.6H637v-12.6h-2.9v-12.6h-2.9v-25.2h-2.9V37.3h2.9v63.1h2.9v12.6h2.9v12.6h2.9v12.6
		h2.9v12.6h2.9v37.9h2.9v88.4H645.6z M634.2,315v-12.6h-2.9v-12.6h-2.9v-63.1h2.9v50.5h2.9v12.6h8.6v-12.6h2.9v25.2h-2.9V315H634.2z
		 M642.7,62.6V37.3h-2.9V24.7h-5.7v12.6h-2.9V12.1h2.9V-0.5h5.7v12.6h5.7v50.5H642.7z M645.6,75.2V62.6h2.9v12.6H645.6z"/>
	<path d="M651.3,315v-37.9h2.9v-101h2.9v-101h2.9V-0.5h5.7v63.1h2.9v101h2.9v101h2.9V315h-5.7v-88.4H657V315H651.3z M665.6,201.4
		v-101h-2.9V87.8h-2.9v113.6H665.6z"/>
	<path d="M685.6,315V24.7H677V-0.5h20v25.2h-8.6V315H685.6z"/>
	<path d="M708.4,315v-12.6h-5.7v-25.2h-2.9V-0.5h2.9v265.1h2.9v25.2h8.6v-25.2h2.9V-0.5h2.9v277.7H717v25.2h-5.7V315H708.4z"/>
	<path d="M722.7,315V-0.5H737v12.6h2.9v12.6h2.9v113.6h-2.9v25.2H737v12.6h2.9v75.7h2.9V315h-2.9v-37.9H737V214h-2.9v-37.9h-8.6V315
		H722.7z M737,150.9v-25.2h2.9V49.9H737V24.7h-11.4v126.2H737z"/>
	<path d="M745.6,315v-37.9h2.9v-101h2.9v-101h2.9V-0.5h5.7v63.1h2.9v101h2.9v101h2.9V315h-5.7v-88.4h-11.4V315H745.6z M759.9,201.4
		v-101H757V87.8h-2.9v113.6H759.9z"/>
	<path d="M779.9,315V24.7h-8.6V-0.5h20v25.2h-8.6V315H779.9z"/>
	<path d="M794.1,315V-0.5h2.9V315H794.1z"/>
	<path d="M799.9,239.3V75.2h2.9v164.1H799.9z M802.7,75.2V24.7h2.9V12.1h2.9V-0.5h5.7v12.6h2.9v12.6h2.9v50.5H817V37.3h-2.9V24.7
		h-5.7v12.6h-2.9v37.9H802.7z M808.4,315v-12.6h-2.9v-12.6h-2.9v-50.5h2.9v37.9h2.9v12.6h5.7v-12.6h2.9v-37.9h2.9v50.5H817v12.6
		h-2.9V315H808.4z M819.9,239.3V75.2h2.9v164.1H819.9z"/>
	<path d="M825.6,315V-0.5h5.7v37.9h2.9v50.5h2.9v37.9h2.9v50.5h2.9v50.5h2.9V-0.5h2.9V315h-2.9v-12.6h-2.9v-50.5h-2.9v-50.5H837
		v-37.9h-2.9v-50.5h-2.9V75.2h-2.9V315H825.6z"/>
	<path d="M851.3,315v-50.5h2.9V315H851.3z"/>
</g>
<text transform="matrix(0.6238 0 0 1 -703.4668 -13.5474)" font-family="'Arial-Lawl-Subhead'" font-size="146.55">An exhibition of stimulation and saturation.</text>
<text transform="matrix(0.6238 0 0 1 -28.5005 556.48)" font-family="'ArialLol1'" font-size="146.55">An exhibition of stimulation and saturation.</text>
<text transform="matrix(0.1871 0 0 1 -416.9669 361.9265)" font-family="'Arial-Lawl-Subhead'" font-size="282.23">The information high you crave.</text>
</svg>
